<?xml version="1.0" encoding="UTF-8" standalone="no"?>
<svg
   width="564"
   height="669"
   viewBox="0 0 564 669"
   version="1.1"
   id="svg3"
   xmlns="http://www.w3.org/2000/svg"
   xmlns:svg="http://www.w3.org/2000/svg">
  <defs
     id="defs3" />
  <g
     id="g3">
    <path
       d="m 293.23,55.56 5.38,0.26 10.89,1.04 5.49,0.61 11.2,1.74 17.31,3.4 3.97,0.88 7.68,1.92 3.8,0.99 7.34,2.13 3.63,1.09 7,2.34 3.45,1.2 6.65,2.56 3.28,1.3 6.3,2.76 3.11,1.41 5.94,2.98 2.93,1.51 5.59,3.18 7.98,5 1.69,1.13 3.04,2.1 1.46,1.03 2.65,1.94 1.27,0.96 2.3,1.84 1.11,0.91 2.02,1.78 1.95,1.77 3.28,3.58 4.42,5.84 0.53,0.79 1.02,1.72 0.52,0.94 1.14,2.45 0.3,0.69 0.66,1.61 0.35,0.84 0.76,1.99 0.39,1.04 0.89,2.43 0.46,1.28 1.03,2.94 0.54,1.55 1.2,3.54 0.63,1.84 1.4,4.2 0.73,2.19 1.62,4.92 0.84,2.56 1.87,5.73 0.97,2.97 2.14,6.6 1.1,3.41 2.44,7.54 0.63,1.95 1.31,4.08 0.67,2.07 1.4,4.35 0.71,2.2 1.48,4.61 2.33,7.23 1.89,5.88 3.65,11.4 1.8,5.62 3.42,10.69 0.83,2.62 1.62,5.06 0.79,2.5 1.53,4.8 0.75,2.36 1.43,4.51 0.7,2.21 1.33,4.19 0.64,2.05 1.21,3.83 0.59,1.87 1.08,3.45 0.53,1.67 0.95,3.03 0.45,1.46 0.8,2.59 0.39,1.23 0.64,2.11 0.31,0.99 0.48,1.6 0.22,0.73 0.31,1.06 0.25,0.95 0.28,1.25 0.18,2.87 0.03,1.46 -0.3,3.06 -0.2,1.52 -0.73,2.93 -1.55,3.95 -0.07,0.14 -0.59,0.73 -0.37,0.44 -1.15,1.28 -0.63,0.71 -1.63,1.76 -0.87,0.94 -2.05,2.18 -1.07,1.13 -2.4,2.53 -1.24,1.3 -2.69,2.79 -1.38,1.43 -2.92,3.01 -4.55,4.67 -5.05,5.14 -9.56,10.01 -4.7,4.96 -8.94,9.71 -4.4,4.83 -8.37,9.5 -4.13,4.72 -7.87,9.36 -3.88,4.66 -7.44,9.29 -3.68,4.65 -7.06,9.3 -3.5,4.66 -6.76,9.39 -9.87,14.28 -2.06,3.05 -4.26,6.59 -2.16,3.36 -4.39,7.06 -4.4,7.15 -8.77,15.04 -2.16,3.76 -4.18,7.5 -2.07,3.73 -3.92,7.3 -1.92,3.62 -3.56,6.95 -4.84,9.83 -5.44,11.44 1.3,6.91 0.28,1.45 0.32,2.76 0.12,1.37 0.01,2.65 -0.04,1.32 -0.34,2.61 -0.21,1.31 -0.71,2.65 -0.39,1.33 -1.09,2.76 -0.6,1.4 -1.49,2.93 -0.8,1.5 -1.93,3.2 -3.4,5.16 -1.08,1.57 -2.19,2.88 -1.11,1.4 -2.27,2.56 -1.14,1.25 -2.36,2.25 -1.19,1.09 -2.45,1.95 -1.24,0.94 -2.57,1.67 -1.3,0.79 -2.71,1.4 -1.36,0.66 -2.85,1.13 -4.46,1.41 -0.77,0.2 -1.76,0.34 -0.91,0.15 -1.98,0.23 -2.02,0.2 -4.35,0.09 -2.18,-0.01 -4.18,-0.32 -1,-0.11 -1.86,-0.29 -0.9,-0.16 -1.59,-0.39 -1.46,-0.41 -2.85,-1.05 -1.42,-0.56 -2.79,-1.35 -1.38,-0.72 -2.69,-1.65 -1.34,-0.87 -2.6,-1.95 -1.29,-1.01 -2.5,-2.24 -1.24,-1.15 -2.39,-2.52 -1.18,-1.3 -2.27,-2.79 -3.26,-4.5 -1.2,-1.77 -2.05,-3.31 -0.97,-1.63 -1.63,-3.09 -0.76,-1.52 -1.22,-2.91 -0.56,-1.44 -0.82,-2.8 -0.36,-1.39 -0.44,-2.74 -0.18,-1.37 -0.08,-2.74 0.01,-1.38 0.27,-2.81 0.78,-4.34 1.13,-4.89 -9.95,-19.93 -4.46,-8.92 -9.19,-17.17 -4.66,-8.49 -9.72,-16.46 -4.94,-8.16 -10.38,-15.93 -5.29,-7.92 -11.19,-15.61 -5.7,-7.79 -12.14,-15.47 -3.1,-3.87 -6.4,-7.75 -3.23,-3.88 -6.69,-7.78 -3.38,-3.9 -6.99,-7.84 -3.53,-3.92 -7.31,-7.93 -3.7,-3.97 -7.65,-8.02 -11.87,-12.19 -2.72,-2.75 -5.08,-5.19 -1.22,-1.25 -2.27,-2.34 -1.1,-1.14 -2.01,-2.07 -0.96,-1 -1.67,-1.75 -0.79,-0.83 -1.28,-1.37 -0.59,-0.63 -0.83,-0.92 -0.69,-0.82 -0.2,-0.27 -0.45,-0.98 -0.23,-0.55 -0.48,-1.37 -1.28,-4.8 -0.19,-0.94 -0.33,-1.5 -0.13,-0.76 -0.01,-1.83 0.04,-0.52 0.17,-1.28 0.11,-0.68 0.35,-1.68 0.2,-0.91 0.56,-2.21 0.31,-1.18 0.8,-2.86 0.43,-1.52 1.08,-3.63 0.58,-1.92 1.39,-4.51 0.36,-1.19 0.8,-2.56 0.42,-1.32 0.89,-2.82 0.45,-1.45 0.99,-3.1 0.5,-1.59 1.08,-3.39 0.55,-1.74 1.19,-3.7 0.6,-1.89 1.29,-4.02 0.66,-2.06 1.4,-4.36 0.71,-2.22 1.52,-4.71 0.77,-2.4 1.63,-5.08 0.84,-2.58 1.75,-5.46 0.9,-2.78 1.88,-5.85 2.98,-9.24 0.77,-2.41 1.49,-4.62 0.73,-2.27 1.4,-4.35 0.69,-2.14 1.32,-4.08 0.65,-2.02 1.24,-3.83 1.22,-3.78 2.21,-6.84 1.07,-3.31 1.94,-5.95 0.94,-2.87 1.69,-5.14 0.81,-2.48 1.46,-4.39 0.7,-2.11 1.26,-3.71 0.61,-1.78 1.07,-3.11 0.52,-1.49 0.93,-2.57 0.44,-1.23 0.79,-2.11 0.39,-1 0.69,-1.71 0.33,-0.82 0.61,-1.39 0.59,-1.32 1.05,-1.96 1.57,-2.5 0.88,-1.3 2.03,-2.59 1.06,-1.3 2.35,-2.57 1.22,-1.28 2.66,-2.54 1.37,-1.26 2.96,-2.5 1.52,-1.24 3.23,-2.46 1.66,-1.22 3.5,-2.39 3.57,-2.38 7.87,-4.57 4.05,-2.24 8.74,-4.23 4.47,-2.07 9.49,-3.84 4.83,-1.87 10.13,-3.38 L 210,65 l 6.03,-1.52 11.62,-2.5 5.74,-1.17 11.17,-1.79 5.55,-0.8 10.87,-1.08 5.42,-0.45 10.73,-0.37 5.36,-0.09 m -7.44,20.87 -8.53,0.28 -4.21,0.28 -8.39,0.68 -4.14,0.48 -8.23,1.07 -4.05,0.69 -17.66,3.66 -11.62,3.07 -5.64,1.8 -11.15,3.76 -5.29,2.09 -5.24,2.13 -2.53,1.11 -5,2.24 -2.39,1.16 -4.73,2.34 -2.24,1.2 -4.41,2.42 -2.08,1.24 -4.06,2.49 -1.89,1.26 -3.67,2.53 -1.68,1.27 -3.26,2.56 -1.45,1.29 -2.79,2.57 -1.22,1.28 -2.29,2.56 -0.95,1.27 -1.77,2.54 -0.67,1.25 -0.42,0.97 -0.42,1.1 -0.28,0.75 -0.59,1.64 -0.35,1.02 -0.76,2.15 -0.43,1.26 -0.9,2.63 -0.5,1.48 -1.04,3.06 -0.56,1.69 -1.16,3.46 -0.62,1.86 -1.27,3.82 -0.67,2.03 -1.37,4.13 -0.71,2.18 -1.46,4.41 -0.75,2.3 -3.08,9.42 -1.62,4.98 -3.29,10.11 -1.68,5.21 -3.39,10.48 -1.7,5.28 -3.39,10.55 -1.66,5.19 -3.29,10.3 -1.58,4.95 -3.09,9.74 -1.44,4.55 -1.42,4.49 -0.67,2.15 -1.33,4.23 -0.62,2 -1.23,3.92 -0.57,1.83 -1.11,3.58 -0.5,1.64 -0.98,3.19 -0.44,1.44 -0.84,2.77 -0.36,1.22 -0.69,2.3 -0.28,0.97 -0.52,1.81 -0.2,0.7 -0.34,1.27 -0.1,0.42 -0.15,0.69 v 0.11 l 0.22,0.84 0.37,0.74 0.31,0.46 0.72,1 0.49,0.62 1.08,1.3 0.69,0.79 1.48,1.64 0.9,0.97 1.92,2.03 1.13,1.16 2.38,2.45 1.38,1.39 2.88,2.89 1.64,1.63 22.16,22.88 14.24,15.57 6.85,7.93 13.5,15.96 6.47,8.11 12.74,16.31 6.08,8.28 11.96,16.64 5.68,8.43 11.16,16.94 5.28,8.57 10.33,17.2 4.85,8.7 9.5,17.44 4.42,8.81 11.69,23.27 -0.18,7.73 -0.22,6.93 -0.09,2.27 -0.05,0.99 -0.09,1.88 -0.05,0.69 -0.04,2.81 0.18,1.6 0.23,0.78 0.56,1.58 0.46,0.93 1.04,1.96 0.75,1.25 1.77,2.7 1.43,2 0.79,1.01 1.6,2.03 0.79,0.93 1.57,1.8 0.71,0.74 1.33,1.34 0.61,0.56 1.18,1.05 0.55,0.42 1.05,0.76 0.48,0.28 0.92,0.49 0.42,0.14 0.81,0.2 0.37,0.01 0.69,-0.07 0.32,-0.14 0.59,-0.34 0.27,-0.27 0.5,-0.62 0.21,-0.4 0.13,-0.76 0.08,-1.02 0.03,-0.74 0.08,-1.65 0.03,-1.04 0.07,-2.24 0.03,-1.32 0.06,-2.78 0.03,-1.58 0.06,-3.29 0.03,-1.81 0.05,-3.75 0.02,-2.03 0.05,-4.16 0.02,-2.22 0.04,-4.53 0.02,-2.39 0.04,-4.87 0.01,-2.54 0.06,-10.43 0.02,-5.55 0.04,-11.28 0.01,-5.83 0.02,-11.78 v -5.95 l -0.01,-11.93 -0.01,-5.9 -0.02,-11.72 -0.03,-5.67 -0.04,-11.18 -0.03,-5.27 -0.04,-5.21 -0.02,-2.5 -0.04,-4.93 -0.02,-2.34 -0.04,-4.61 -0.02,-2.17 -0.05,-4.25 -0.03,-1.97 -0.05,-3.84 -0.03,-1.75 -0.06,-3.39 -0.04,-1.51 -0.06,-2.9 -0.03,-1.25 -0.08,-2.36 -0.03,-0.96 -0.08,-1.78 -0.04,-0.66 -0.08,-1.15 -0.04,-0.33 -1.29,-7.75 -1.16,-5.34 -0.7,-2.66 -1.48,-5.28 -0.83,-2.5 -1.71,-4.91 -0.92,-2.2 -3.38,-7.05 -2.66,-4.79 -1.34,-2.12 -1.34,-2.06 -0.63,-0.91 -1.23,-1.72 -0.56,-0.7 -1.07,-1.26 -0.45,-0.43 -0.82,-0.69 -0.3,-0.1 -1.16,-0.01 -1.14,0.21 -0.7,0.2 -3.07,1 -1.62,0.74 -6,2.24 -3.75,0.81 -1.88,0.08 -3.79,-0.08 -2.04,-0.36 -2.07,-0.42 -1.1,-0.29 -2.23,-0.63 -1.2,-0.4 -3.93,-1.24 -2.35,-0.68 -1.07,-0.27 -2.06,-0.49 -0.94,-0.18 -1.83,-0.3 -0.85,-0.08 -3.23,-0.15 -1.5,0.19 -2.96,0.54 -1.54,0.51 -3.29,1.32 -2.01,1.05 -0.91,0.6 -1.76,1.26 -0.79,0.71 -1.51,1.48 -0.66,0.82 -1.26,1.69 -0.53,0.92 -1,1.9 -0.41,1.02 -0.74,2.11 -0.28,1.13 -0.48,2.31 -0.15,1.23 -0.58,4.89 -2.77,-1.43 -2.84,-2.06 -2.01,-1.97 -0.99,-1.2 -1.95,-2.52 -0.89,-1.38 -1.68,-2.81 -0.67,-1.42 -1.83,-4.7 -0.88,-3.2 -0.27,-1.63 -0.45,-3.27 -0.07,-1.65 -0.04,-3.31 0.13,-1.65 0.36,-3.31 0.31,-1.64 0.73,-3.27 0.5,-1.61 1.08,-3.2 0.67,-1.57 1.42,-3.1 0.83,-1.49 1.74,-2.97 0.98,-1.41 2.03,-2.79 1.13,-1.32 2.31,-2.59 1.25,-1.2 2.58,-2.34 1.38,-1.07 2.81,-2.07 1.49,-0.92 3.04,-1.77 1.59,-0.75 3.25,-1.42 1.69,-0.57 3.42,-1.04 1.78,-0.37 3.19,-0.49 2.33,-0.21 1.24,-0.05 5.13,-0.05 2.62,0.18 5.2,0.5 2.36,0.44 2.31,0.47 1.05,0.28 2.02,0.58 0.86,0.34 3.19,1.5 2.17,1.26 1.07,0.74 4.25,3.17 1.83,1.76 1.76,1.77 0.77,0.88 1.43,1.74 0.56,0.83 1,1.63 0.3,0.74 0.47,1.41 v 0.59 l -0.61,0.1 -0.96,-0.26 -0.71,-0.26 -1.53,-0.61 -0.93,-0.41 -1.94,-0.9 -1.07,-0.54 -6.93,-3.02 -4.52,-1.47 -2.27,-0.47 -4.55,-0.76 -2.34,-0.13 -4.74,-0.1 -2.5,0.19 -4.95,0.68 -3.24,0.76 -1.57,0.52 -3.1,1.13 -1.49,0.69 -2.93,1.48 -1.38,0.86 -2.71,1.79 -1.26,1 -2.45,2.08 -1.11,1.14 -2.13,2.35 -0.94,1.26 -1.79,2.58 -0.74,1.37 -1.24,2.45 -0.6,1.4 -0.2,0.57 -0.33,1.04 -0.06,0.39 -0.06,0.66 0.06,0.18 0.19,0.25 0.19,-0.04 0.44,-0.2 0.3,-0.28 0.66,-0.68 0.42,-0.53 0.88,-1.19 0.52,-0.81 1.8,-2.41 1.42,-1.61 0.8,-0.78 3.43,-3.05 1.92,-1.28 2.35,-1.54 1.33,-0.83 0.55,-0.32 1.02,-0.57 0.4,-0.2 0.75,-0.32 0.27,-0.06 0.49,-0.08 0.16,0.06 0.26,0.16 0.05,0.18 0.06,0.4 -0.04,0.28 -0.13,0.63 -0.12,0.4 -0.31,1.21 -0.22,1.04 -0.11,0.59 -0.45,2.49 -0.15,1.17 -0.17,1.83 v 0.96 l 0.05,0.34 0.13,0.61 0.11,0.18 0.25,0.26 h 0.16 l 0.36,-0.09 0.21,-0.17 0.44,-0.44 0.25,-0.35 0.52,-0.78 0.28,-0.52 0.59,-1.13 0.31,-0.7 2.14,-3.96 0.85,-1.34 0.43,-0.6 0.83,-1.15 0.38,-0.45 1.7,-1.83 1.04,-0.76 0.66,-0.21 1.45,-0.32 1.08,-0.06 1.16,-0.05 0.69,-0.01 1.49,-0.01 h 0.89 l 2.89,0.08 1.68,0.12 0.67,0.08 1.21,0.19 0.38,0.12 0.58,0.24 v 0.14 l -0.24,0.74 -0.37,0.81 -0.27,0.52 -1.3,2.32 -0.82,1.3 -2.12,4.23 -0.49,1.38 -0.15,0.6 L 217,322 v 0.42 l 0.11,1.63 0.14,0.25 0.12,0.03 0.28,-0.01 0.21,-0.12 0.48,-0.31 0.33,-0.27 0.73,-0.63 0.48,-0.45 1.03,-0.98 0.64,-0.64 1.38,-1.36 0.85,-0.84 2.85,-2.68 1.79,-1.53 0.78,-0.6 1.48,-1.07 0.58,-0.33 1.03,-0.51 h 0.29 l 1.06,0.23 0.98,0.37 0.58,0.26 2.53,1.23 1.3,0.75 2.55,1.52 0.91,0.67 0.84,0.63 0.26,0.26 0.41,0.46 v 0.14 l -0.43,0.64 -0.69,0.8 -0.5,0.54 -1.09,1.16 -0.65,0.67 -1.38,1.39 -0.76,0.74 -3.1,3.33 -1.5,1.95 -0.43,0.77 -0.38,0.74 -0.1,0.3 -0.14,0.57 0.02,0.22 0.1,0.38 0.14,0.1 0.36,0.17 0.28,-0.01 0.83,-0.28 1.03,-0.44 0.69,-0.31 1.48,-0.7 0.86,-0.42 1.79,-0.87 0.94,-0.48 2.81,-1.35 1.78,-0.79 0.79,-0.32 1.48,-0.57 0.57,-0.18 0.99,-0.27 h 0.25 l 1.08,0.34 0.9,0.56 0.52,0.44 1.1,0.97 0.62,0.63 1.27,1.34 0.69,0.8 1.41,1.69 0.75,0.97 1.53,1.99 0.8,1.11 3.27,4.68 1.7,2.68 2.23,3.41 1.38,2.01 0.59,0.79 1.08,1.45 0.39,0.45 0.36,0.39 0.13,0.12 0.23,0.18 h 0.06 l 0.23,-0.49 0.14,-0.79 0.06,-0.6 0.11,-1.33 0.05,-0.84 0.09,-1.79 0.04,-1.03 0.06,-2.16 0.03,-1.19 0.04,-2.44 0.02,-1.31 0.03,-5.4 -0.02,-2.81 -0.05,-5.65 -0.06,-2.68 -0.14,-5.24 -0.09,-2.23 -0.11,-2.15 -0.05,-0.94 -0.12,-1.78 -0.07,-0.73 -0.14,-1.32 -0.08,-0.47 -0.15,-0.78 -0.09,-0.17 -0.79,-1.21 -0.79,-1.08 -0.5,-0.63 -2.21,-2.66 -1.19,-1.29 -5.45,-6.72 -3.07,-4.72 -1.25,-2.47 -2.32,-5 -0.87,-2.61 -1.56,-5.27 -0.49,-2.73 -0.8,-5.52 -0.11,-2.84 -0.04,-5.74 0.27,-2.95 0.74,-5.95 0.66,-3.04 1.5,-6.13 1.05,-3.12 0.7,-1.89 0.66,-1.65 0.42,-0.98 0.89,-2.09 0.51,-1.18 1.08,-2.44 0.59,-1.34 2.53,-5.59 1.4,-3.04 2.88,-6.19 1.47,-3.11 2.93,-6.18 1.4,-2.87 1.37,-2.82 0.65,-1.32 1.26,-2.57 0.59,-1.16 1.13,-2.23 0.5,-0.97 0.95,-1.83 0.4,-0.73 0.74,-1.34 0.27,-0.46 0.5,-0.78 0.14,-0.15 1.42,-0.73 1.03,0.23 0.55,0.46 1.1,1.14 0.57,0.91 1.15,2.04 0.58,1.35 0.54,1.2 0.54,1.16 0.35,0.73 0.74,1.57 0.43,0.92 0.91,1.91 0.52,1.07 2.17,4.53 1.23,2.53 2.53,5.21 1.31,2.68 2.37,4.87 1.45,3.01 0.66,1.4 1.29,2.73 0.58,1.27 1.13,2.48 0.51,1.16 1.91,4.42 0.75,1.96 1.39,3.78 0.53,1.73 0.96,3.37 0.34,1.62 0.6,3.23 0.19,1.64 0.32,3.32 0.08,1.78 0.12,3.68 v 2.05 l -0.14,6.47 -0.28,3.93 -0.24,1.81 -0.56,3.53 -0.4,1.65 -0.89,3.23 -0.58,1.55 -1.25,3.06 -0.79,1.51 -1.66,3 -1.01,1.51 -2.12,3.06 -1.24,1.58 -2.62,3.22 -1.51,1.71 -2.39,2.89 -1.42,1.9 -0.59,0.88 -1.07,1.69 -0.37,0.71 -0.61,1.3 -0.09,0.44 -0.18,1.35 -0.11,1.22 -0.04,0.75 -0.09,1.59 -0.03,0.91 -0.07,1.89 -0.02,1.03 -0.08,4.37 -0.01,2.39 v 4.88 l 0.03,2.46 0.07,4.89 0.06,2.28 0.14,4.39 0.09,1.84 0.1,1.77 0.05,0.76 0.11,1.44 0.06,0.57 0.12,1.05 0.06,0.35 0.14,0.59 0.07,0.1 0.54,0.66 0.29,0.24 0.12,0.02 0.23,-0.04 0.1,-0.12 0.2,-0.3 0.1,-0.25 0.89,-1.69 0.97,-1.63 0.63,-0.99 1.34,-2.08 0.77,-1.14 1.58,-2.35 0.83,-1.2 1.67,-2.41 0.83,-1.16 1.64,-2.27 0.75,-1.01 1.46,-1.93 0.61,-0.77 1.15,-1.4 0.4,-0.43 3.11,-2.65 0.99,-0.61 0.43,-0.19 0.79,-0.3 h 0.29 l 1.32,0.28 1.31,0.43 0.79,0.32 1.67,0.69 0.91,0.42 1.85,0.88 0.92,0.48 2.68,1.36 1.63,0.79 0.69,0.32 1.28,0.58 0.44,0.17 0.76,0.28 h 0.12 l 0.4,-0.26 0.03,-0.41 -0.1,-0.31 -0.26,-0.67 -0.23,-0.42 -0.51,-0.87 -0.33,-0.49 -1.54,-2.08 -0.97,-1.11 -2.06,-2.2 -1.11,-0.98 -4.58,-4.03 3.3,-2.46 2.99,-2.15 1.72,-1.11 0.75,-0.38 1.44,-0.65 0.66,-0.15 1.27,-0.18 0.61,0.09 1.21,0.3 0.62,0.34 1.26,0.81 0.68,0.6 1.4,1.32 0.79,0.86 1.66,1.86 0.96,1.13 2.46,2.8 1.47,1.57 0.6,0.58 1.1,1.03 0.36,0.26 0.58,0.34 0.05,-0.13 0.12,-2.18 -0.35,-1.94 -0.35,-1.11 -0.81,-2.27 -0.55,-1.15 -1.18,-2.27 -0.68,-1.03 -1.91,-3.28 -0.38,-0.87 -0.09,-0.31 -0.11,-0.54 0.07,-0.11 0.72,-0.31 0.95,-0.18 0.66,-0.07 1.42,-0.13 0.83,-0.04 1.73,-0.06 h 0.93 l 2.05,0.02 1.16,0.03 0.49,0.03 1.73,0.18 0.65,0.19 1.16,0.45 0.51,0.38 1.01,0.85 0.58,0.62 1.22,1.5 0.94,1.31 0.5,0.75 1.99,3.18 0.78,1.51 2.86,5.5 0.3,-4.72 -0.12,-3.95 -0.17,-1.19 -0.12,-0.5 -0.26,-0.9 -0.16,-0.29 -0.72,-1.76 0.02,-0.7 0.27,-0.11 0.73,-0.07 0.63,0.19 1.47,0.53 1.02,0.49 3.98,2.4 2.77,2.12 1.32,1.2 2.53,2.45 1.05,1.22 0.99,1.22 0.42,0.58 0.78,1.15 0.29,0.54 1.58,2.54 0.46,0.59 0.19,0.19 0.33,0.28 h 0.1 l 0.27,-0.34 -0.01,-0.55 -0.08,-0.4 -0.23,-0.88 -0.18,-0.54 -0.41,-1.13 -0.26,-0.63 -1.17,-2.67 -0.72,-1.36 -1.5,-2.71 -0.78,-1.13 -2.29,-2.94 -1.68,-1.82 -0.92,-0.83 -1.87,-1.62 -1.01,-0.73 -2.05,-1.41 -1.08,-0.63 -4.48,-2.32 -2.43,-0.84 -4.96,-1.47 -2.61,-0.42 -5.3,-0.61 -2.72,0.03 -5.48,0.28 -2.75,0.48 -5.51,1.19 -2.71,0.95 -5.38,2.13 -2.59,1.42 -2.51,1.28 -1.48,0.66 -0.61,0.22 -1.13,0.36 -0.38,0.06 -0.62,0.01 -0.09,-0.14 -0.11,-0.66 0.11,-0.58 0.16,-0.35 0.36,-0.75 0.27,-0.43 0.59,-0.9 0.38,-0.5 1.72,-2.12 1.15,-1.2 2.48,-2.49 1.47,-1.33 5.26,-3.97 3.74,-2.05 2.05,-0.76 4.25,-1.34 2.39,-0.43 2.44,-0.39 1.3,-0.14 2.65,-0.25 1.42,-0.07 5.79,-0.05 3.67,0.22 1.74,0.24 3.44,0.57 1.64,0.42 3.23,0.94 1.55,0.6 3.04,1.3 1.46,0.79 2.88,1.68 1.39,0.99 2.75,2.06 1.33,1.18 2.63,2.47 1.28,1.38 2.98,3.52 1.8,2.43 0.81,1.25 2.99,5.1 1.12,2.65 1.99,5.36 0.61,2.71 0.99,5.44 0.11,2.69 -0.03,5.36 -0.39,2.6 -0.46,2.58 -0.33,1.26 -0.71,2.49 -0.46,1.21 -0.97,2.39 -0.58,1.15 -1.23,2.26 -0.71,1.08 -1.49,2.12 -0.84,1 -1.74,1.95 -0.97,0.91 -1.98,1.72 -1.23,0.96 -0.53,0.36 -1,0.63 -0.36,0.16 -0.64,0.21 -0.13,-0.09 -0.39,-0.53 -0.22,-0.59 -0.1,-0.39 -0.3,-1.77 v -1.02 l -0.37,-3.3 -0.59,-2.18 -0.44,-1.07 -0.99,-2.11 -0.63,-1.01 -1.33,-1.98 -0.79,-0.92 -1.63,-1.8 -0.92,-0.8 -1.89,-1.54 -1.02,-0.66 -2.09,-1.24 -1.1,-0.48 -2.25,-0.87 -1.16,-0.28 -4.18,-0.58 -2.96,0.03 -1.69,0.25 -1.73,0.28 -0.93,0.21 -1.92,0.44 -1.05,0.29 -2.16,0.61 -1.18,0.38 -2.44,0.78 -1.35,0.46 -5.37,1.41 -3.4,0.42 -1.67,-0.06 -3.33,-0.29 -1.69,-0.41 -3.42,-1 -1.81,-0.77 -2.93,-1.24 -1.59,-0.65 -0.65,-0.24 -1.21,-0.43 -0.5,-0.14 -0.92,-0.21 -0.38,-0.03 -1.37,0.08 -0.62,0.34 -1.25,0.86 -0.83,0.71 -1.6,1.74 -1.24,1.7 -0.69,1.05 -1.4,2.25 -0.73,1.27 -1.48,2.64 -0.74,1.42 -2.94,5.87 -1.27,2.93 -1.23,2.91 -0.53,1.37 -0.98,2.69 -0.37,1.21 -0.98,3.16 -0.59,1.93 -0.26,0.92 -0.98,3.58 -0.39,1.91 -0.37,1.95 -0.16,1.06 -0.31,2.21 -0.14,1.24 -0.25,2.59 -0.11,1.48 -0.21,3.1 -0.09,1.78 -0.16,3.73 -0.07,2.15 -0.13,4.49 -0.05,2.57 -0.1,5.37 -0.05,3.06 -0.04,3.13 -0.01,1.66 -0.04,3.4 -0.01,1.81 -0.04,3.68 -0.01,1.96 -0.03,3.98 -0.01,2.12 -0.03,4.31 -0.01,2.27 -0.02,4.65 -0.01,2.45 -0.02,4.99 -0.01,2.63 -0.03,5.36 -0.01,2.82 -0.02,5.74 -0.01,3.02 -0.03,6.14 -0.01,3.22 -0.06,19.27 -0.02,12.32 v 5.8 5.74 l 0.01,2.76 v 5.45 l 0.01,2.6 0.01,5.13 0.01,2.43 0.02,4.78 0.01,2.24 0.02,4.39 0.02,2.03 0.03,3.97 0.01,1.81 0.04,3.51 0.02,1.57 0.04,3.02 0.02,1.32 0.04,2.5 0.02,1.04 0.05,1.94 0.03,0.75 0.05,1.35 0.03,0.44 0.06,0.72 0.03,0.12 0.52,1.57 0.42,0.81 0.26,0.3 0.54,0.53 0.33,0.17 0.69,0.27 0.42,0.07 1.45,-0.29 1.21,-0.61 0.69,-0.5 1.45,-1.09 0.78,-0.7 1.59,-1.48 0.82,-0.86 3.32,-3.71 1.55,-2.09 2.97,-4.27 1.11,-2.1 1,-1.94 0.55,-1.11 0.22,-0.48 0.73,-1.79 0.18,-0.76 0.24,-1.47 -0.02,-0.78 -0.14,-1.63 -0.18,-1.04 -0.3,-2.35 -0.18,-1.93 -0.07,-1.05 -0.22,-4.39 v -1.92 l 0.17,-4.17 0.36,-2.39 0.42,-1.33 0.46,-1.37 0.31,-0.79 0.68,-1.63 0.43,-0.96 0.92,-2.03 0.57,-1.2 1.21,-2.54 0.72,-1.51 7.57,-15.15 5.33,-10.17 2.79,-5.09 5.67,-10.2 2.94,-5.08 5.96,-10.15 3.08,-5.04 6.21,-10.03 3.18,-4.96 6.42,-9.85 3.27,-4.83 6.58,-9.59 3.34,-4.68 6.7,-9.27 3.38,-4.49 8.54,-11.18 5.52,-7.05 2.73,-3.39 10.84,-13.23 5.66,-6.49 5.73,-6.51 3.01,-3.31 6.1,-6.68 3.25,-3.46 6.64,-7.03 3.57,-3.7 3.62,-3.74 1.88,-1.93 3.81,-3.9 1.99,-2.02 4.77,-4.86 3.04,-3.12 1.42,-1.47 2.77,-2.88 1.26,-1.33 2.44,-2.57 1.08,-1.15 2.05,-2.2 0.86,-0.93 1.59,-1.75 0.61,-0.69 1.07,-1.23 0.32,-0.4 0.48,-0.65 v -0.09 l -0.16,-0.73 -0.26,-0.95 -0.2,-0.7 -0.45,-1.54 -0.3,-0.97 -0.63,-2.08 -0.38,-1.23 -0.79,-2.57 -0.46,-1.47 -0.95,-3.03 -0.53,-1.68 -1.08,-3.46 -0.6,-1.87 -1.21,-3.83 -0.65,-2.05 -1.33,-4.17 -0.7,-2.2 -1.43,-4.47 -0.75,-2.33 -3.07,-9.57 -1.63,-5.07 -3.32,-10.3 -1.72,-5.32 -3.47,-10.72 -1.76,-5.4 -3.51,-10.79 -1.73,-5.32 -3.45,-10.56 -1.66,-5.08 -3.28,-9.99 -1.53,-4.66 -1.52,-4.61 -0.73,-2.2 -1.43,-4.34 -0.68,-2.05 -1.33,-4.01 -0.63,-1.88 -1.22,-3.66 -0.56,-1.68 -1.1,-3.27 -0.49,-1.47 -0.96,-2.82 -0.42,-1.24 -0.81,-2.34 -0.34,-0.98 -0.64,-1.83 -0.25,-0.71 -0.46,-1.26 -0.16,-0.41 -0.27,-0.67 -0.06,-0.09 -1.4,-1.93 -1.27,-1.5 -0.77,-0.83 -1.62,-1.7 -0.91,-0.9 -1.88,-1.81 -1,-0.93 -4.18,-3.71 -2.12,-1.71 -2.11,-1.66 -1.02,-0.76 -2.01,-1.44 -0.93,-0.62 -6.8,-4.09 -5.14,-2.77 -2.8,-1.38 -5.75,-2.74 -3.04,-1.34 -6.17,-2.64 -3.18,-1.26 -6.41,-2.46 -3.23,-1.15 -6.45,-2.21 -3.17,-0.99 -6.31,-1.89 -3.03,-0.8 -5.96,-1.49 -2.79,-0.56 -13.2,-2.4 -8.8,-1.3 -4.38,-0.5 -8.77,-0.9 -4.36,-0.31 -8.71,-0.51 -4.33,-0.11 -8.63,-0.12 m 56.4,293.22 1.31,0.37 0.75,0.27 3.25,1.33 1.79,0.92 3.63,1.96 1.72,1.1 3.3,2.24 1.27,1.09 1.95,1.95 1.33,1.58 0.65,0.9 2.55,3.82 0.99,2.01 1.7,3.72 0.76,2.06 0.23,1 0.38,1.99 0.08,1.14 0.11,2.41 -0.01,1.52 -0.15,3.99 -0.26,2.17 -0.27,1.03 -0.62,2.07 -0.5,1.17 -0.52,1.22 -0.32,0.67 -0.68,1.41 -0.39,0.79 -1.1,2.11 -0.63,1.1 -1.32,2.23 -0.68,1.07 -1.37,2.08 -0.64,0.9 -1.26,1.7 -0.53,0.6 -3.85,4.43 -2.94,-4.32 -1.8,-2.25 -1.45,-1.43 -0.9,-0.71 -1.9,-1.44 -1.17,-0.76 -2.47,-1.54 -1.49,-0.84 -6.34,-3.97 -3.65,-2.75 -1.56,-1.44 -2.92,-2.92 -1.19,-1.55 -2.22,-3.16 -0.85,-1.68 -1.54,-3.44 -0.52,-1.85 -0.88,-3.78 -0.21,-2.04 -0.26,-4.17 0.1,-2.25 0.34,-4.62 0.39,-2.49 0.47,-2.8 0.31,-1.58 0.15,-0.65 0.32,-1.2 0.16,-0.48 0.33,-0.86 0.18,-0.31 0.37,-0.55 0.2,-0.17 0.42,-0.26 0.24,-0.03 1,0.14 0.64,0.4 2.76,2.31 1.35,1.89 0.48,1.23 0.44,1.29 0.19,0.74 0.34,1.55 0.13,0.88 0.25,1.85 0.09,1.05 0.18,2.19 0.06,1.24 0.17,3.13 0.1,1.68 0.05,0.66 0.1,1.18 0.05,0.43 0.12,0.75 0.07,0.23 0.15,0.37 0.09,0.05 0.2,0.03 0.12,-0.09 0.56,-0.63 0.41,-0.61 0.76,-1.37 0.54,-1.18 0.27,-0.68 1.04,-2.89 0.35,-1.38 0.98,-3.65 0.27,-0.91 0.1,-0.3 0.17,-0.5 0.04,-0.06 0.39,-0.02 0.43,0.22 0.27,0.21 1.27,1.06 0.74,0.77 1.5,1.63 0.67,0.86 1.25,1.69 0.37,0.7 1.1,3.28 0.31,2.41 -0.06,1.2 -0.24,2.37 -0.33,1.06 -0.79,2 -0.59,0.75 -1.41,2.13 -0.33,0.64 -0.1,0.26 -0.16,0.48 v 0.15 l 0.26,0.37 0.39,0.05 0.29,-0.05 1.33,-0.41 0.79,-0.42 1.59,-0.93 0.66,-0.53 0.62,-0.54 0.23,-0.26 0.41,-0.52 0.09,-0.24 0.5,-0.96 0.37,-0.41 0.2,-0.08 0.41,-0.11 0.21,0.06 0.44,0.19 0.23,0.21 0.45,0.47 0.23,0.34 0.46,0.75 0.23,0.47 0.92,2.16 0.43,1.46 0.74,2.33 0.49,1.36 0.23,0.55 0.44,0.98 0.18,0.3 0.33,0.48 h 0.1 l 0.29,-0.38 0.17,-0.59 0.07,-0.43 0.12,-0.94 0.04,-0.57 0.06,-1.19 -0.01,-0.65 -0.26,-4.2 -0.44,-2.87 -0.34,-1.46 -0.76,-2.91 -0.49,-1.46 -1.07,-2.93 -0.64,-1.45 -1.36,-2.88 -0.78,-1.42 -1.62,-2.82 -0.91,-1.36 -1.88,-2.7 -1.03,-1.29 -2.12,-2.55 -1.14,-1.2 -3.56,-3.75 h 2.55 m -85.09,0.67 0.6,1.07 0.26,0.78 0.52,1.73 0.21,1.06 0.41,2.22 0.15,1.24 0.48,5.25 v 2.73 l -0.04,2.72 -0.09,1.3 -0.24,2.55 -0.2,1.15 -0.89,4.24 -0.75,2.57 -0.47,1.18 -1.01,2.29 -0.62,1.07 -1.34,2.1 -0.8,1 -1.72,1.98 -1.02,0.97 -2.17,1.94 -1.27,0.98 -2.68,1.98 -1.55,1.03 -3.24,2.09 -1.86,1.11 -3.94,2.5 -2.33,1.62 -0.97,0.76 -1.81,1.47 -0.67,0.65 -1.17,1.22 -0.31,0.49 -1.19,1.69 -0.57,0.59 -0.55,0.54 -0.24,0.16 -0.44,0.27 h -0.16 l -0.89,-0.42 -0.81,-0.68 -0.48,-0.52 -1.02,-1.12 -0.56,-0.7 -1.16,-1.47 -0.6,-0.82 -2.45,-3.51 -1.14,-1.87 -2.16,-3.73 -0.77,-1.66 -1.79,-4.83 -0.78,-3.28 -0.19,-1.65 -0.24,-3.31 0.07,-1.64 0.27,-3.28 0.33,-1.6 0.78,-3.18 0.58,-1.53 1.28,-3.02 0.82,-1.44 1.76,-2.81 1.06,-1.3 2.24,-2.54 1.29,-1.15 4.67,-3.51 3.62,-2.24 1.83,-0.94 3.62,-1.75 1.56,-0.57 1.51,-0.5 0.65,-0.15 1.22,-0.24 h 0.47 l 1.28,0.09 0.36,0.23 -0.11,0.28 -0.16,0.31 -0.15,0.21 -0.37,0.46 -0.26,0.29 -0.58,0.64 -0.37,0.39 -0.8,0.84 -0.5,0.51 -3.16,3.58 -1.93,2.53 -0.88,1.32 -1.7,2.67 -0.75,1.38 -1.44,2.78 -0.61,1.42 -1.17,2.85 -0.47,1.45 -0.88,2.89 -0.32,1.45 -0.57,2.89 -0.17,1.44 -0.25,2.86 v 1.4 l 0.06,2.14 0.1,1.15 0.07,0.44 0.16,0.78 0.1,0.25 0.2,0.41 0.12,0.06 0.25,0.03 0.13,-0.13 0.27,-0.37 0.14,-0.32 0.29,-0.76 0.14,-0.53 0.28,-1.16 0.14,-0.73 0.79,-3.25 0.64,-1.92 0.35,-0.76 0.7,-1.39 0.35,-0.43 0.69,-0.67 h 0.31 l 0.64,0.24 0.65,0.37 0.4,0.28 1.76,1.3 0.95,0.83 1.52,1.23 0.86,0.61 0.36,0.19 0.66,0.32 0.25,0.05 0.44,0.04 0.14,-0.08 0.2,-0.23 0.02,-0.22 -0.04,-0.49 -0.12,-0.34 -0.3,-0.74 -0.25,-0.46 -0.57,-0.99 -0.4,-0.58 -1.58,-3.11 -0.65,-2.21 -0.12,-1.11 -0.09,-2.22 0.17,-1.05 0.48,-2.04 0.46,-0.91 1.5,-2.27 1.37,-1.72 0.72,-0.8 1.43,-1.53 0.6,-0.52 0.56,-0.47 0.23,-0.14 0.4,-0.23 h 0.13 l 0.31,0.27 0.22,0.43 0.11,0.31 0.44,1.49 0.16,0.95 0.86,3.41 0.86,2.37 0.48,1.06 0.98,1.98 0.46,0.67 0.44,0.6 0.2,0.18 0.38,0.28 h 0.15 l 0.35,-0.59 0.2,-0.92 0.08,-0.67 0.15,-1.48 0.04,-0.89 0.07,-1.86 v -1.02 l 0.31,-6.08 0.21,-1.78 0.13,-0.72 0.27,-1.29 0.15,-0.38 1.38,-2.72 1.19,-1.65 0.65,-0.69 1.33,-1.24 0.65,-0.4 1.26,-0.62 h 0.54 m 177.32,-117.8 4.55,0.32 2.49,0.3 1.04,0.2 1.98,0.46 0.88,0.31 1.69,0.67 0.83,0.42 4.31,2.82 2.93,2.42 1.37,1.37 2.67,2.83 1.12,1.44 2.06,2.88 0.68,1.35 1.12,2.48 0.73,1.9 0.35,1.05 1.36,4.4 0.57,2.33 1.03,4.67 0.33,2.17 0.3,2.13 0.08,0.97 0.14,1.87 v 0.81 l -0.06,2.86 -0.11,1.21 -0.12,0.33 -0.3,0.48 -0.23,0.02 -0.54,-0.06 -0.39,-0.17 -3.45,-0.95 -2.74,-0.24 -1.64,0.08 -3.44,0.3 -2.01,0.34 -4.22,0.83 -2.43,0.62 -4.89,1.15 -2.19,0.39 -4.22,0.65 -1.85,0.14 -3.55,0.15 -1.53,-0.11 -2.89,-0.36 -1.2,-0.37 -3.32,-1.23 -2.23,-1.04 -1.12,-0.62 -4.46,-2.78 -2.19,-1.76 -4.33,-3.78 -2.06,-2.21 -4.05,-4.66 -1.87,-2.61 -1.89,-2.73 -0.99,-1.52 -0.36,-0.63 -0.62,-1.18 -0.17,-0.47 -0.24,-0.86 0.01,-0.33 0.13,-0.61 0.2,-0.21 0.5,-0.38 0.4,-0.13 0.87,-0.2 0.59,-0.05 1.26,-0.07 h 0.77 l 4.41,0.7 3.01,1.13 1.49,0.87 2.95,1.94 1.4,1.24 2.74,2.64 1.23,1.56 1.96,2.29 1.06,1.05 0.41,0.3 0.73,0.44 0.24,0.01 0.4,-0.13 0.07,-0.28 0.05,-0.68 -0.11,-0.54 -0.3,-1.2 -0.28,-0.79 -0.66,-1.7 -0.47,-1.02 -1.02,-2.17 -0.65,-1.25 -1.33,-2.64 -0.74,-1.59 -0.28,-0.64 -0.49,-1.19 -0.13,-0.39 -0.17,-0.64 0.06,-0.06 0.61,-0.11 0.8,-0.01 0.55,0.03 1.19,0.07 0.7,0.06 1.45,0.14 0.78,0.1 3.06,0.63 1.92,0.65 0.88,0.42 1.7,0.91 0.77,0.55 1.48,1.16 0.64,0.66 1.21,1.37 0.5,0.75 0.93,1.56 0.35,0.84 0.61,1.71 0.19,0.91 0.27,1.85 v 0.96 l 0.26,1.79 0.39,0.74 h 0.24 l 0.91,-0.5 0.48,-0.81 0.18,-0.65 0.31,-1.43 0.09,-0.94 0.14,-2.03 v -1.22 l 0.08,-1.84 0.14,-0.97 0.13,-0.36 0.3,-0.65 0.22,-0.19 0.49,-0.32 0.33,-0.04 0.72,0.01 0.46,0.13 0.98,0.33 0.6,0.28 1.27,0.64 0.76,0.44 1.61,0.96 0.94,0.59 2.15,1.3 1.29,0.72 0.54,0.27 0.98,0.47 0.33,0.12 0.55,0.16 0.06,-0.06 -0.25,-0.61 -0.56,-0.78 -0.44,-0.53 -0.99,-1.15 -0.62,-0.67 -1.31,-1.4 -0.73,-0.74 -3.47,-3.17 -2.49,-1.95 -1.32,-0.88 -2.67,-1.72 -1.4,-0.76 -2.83,-1.47 -1.45,-0.63 -2.93,-1.19 -1.49,-0.49 -2.99,-0.91 -1.5,-0.33 -3.01,-0.6 -1.49,-0.17 -2.98,-0.27 -1.47,-0.01 -2.46,-0.06 -1.37,-0.11 -0.54,-0.08 -1,-0.18 -0.37,-0.12 -0.64,-0.26 -0.18,-0.17 -0.28,-0.34 -0.01,-0.2 0.09,-0.43 0.17,-0.24 0.44,-0.51 0.36,-0.29 0.8,-0.59 0.53,-0.33 4.87,-2.44 3.49,-1.21 1.91,-0.39 3.93,-0.67 2.17,-0.13 4.47,-0.14 m -277.61,-0.03 2.62,0.3 2.58,0.36 1.22,0.26 2.39,0.56 1.08,0.36 4.04,1.46 2.18,0.92 0.84,0.42 1.5,0.83 0.5,0.38 0.81,0.72 0.15,0.31 0.11,0.6 -0.2,0.25 -0.59,0.47 -0.56,0.17 -1.3,0.31 -0.92,0.1 -2.02,0.14 h -1.28 l -4.41,0.28 -3.02,0.45 -1.52,0.34 -3.06,0.77 -1.52,0.49 -3.05,1.07 -1.49,0.64 -2.98,1.34 -1.44,0.77 -2.86,1.59 -1.36,0.88 -2.68,1.83 -1.26,0.99 -2.45,2.03 -1.12,1.09 -2.13,2.15 -1.21,1.3 -0.46,0.54 -0.82,1 -0.22,0.34 -0.31,0.56 0.08,0.07 0.67,-0.07 0.84,-0.32 0.58,-0.27 1.25,-0.61 0.72,-0.39 1.51,-0.84 0.8,-0.48 2.69,-1.58 1.48,-0.81 0.61,-0.28 1.13,-0.49 0.45,-0.12 0.82,-0.15 0.31,0.04 0.55,0.19 0.2,0.22 0.34,0.54 0.11,0.4 0.18,0.88 0.04,0.58 0.06,1.25 v 0.77 l 0.09,2.28 0.15,1.3 0.11,0.53 0.24,0.98 0.14,0.36 0.3,0.63 0.17,0.18 0.33,0.25 0.17,-0.02 0.34,-0.16 0.17,-0.24 0.32,-0.59 0.15,-0.46 0.27,-1.05 0.12,-0.71 0.65,-2.99 0.59,-1.79 0.37,-0.79 0.79,-1.52 0.49,-0.67 1.03,-1.27 0.61,-0.55 1.28,-1.05 0.74,-0.44 1.55,-0.82 0.88,-0.34 1.83,-0.63 1.03,-0.25 2.14,-0.45 1.19,-0.16 2.03,-0.23 1.08,-0.08 0.42,0.01 0.74,0.07 0.25,0.09 0.42,0.23 0.1,0.19 0.1,0.43 -0.05,0.29 -0.2,0.65 -0.2,0.42 -0.47,0.91 -0.34,0.56 -0.75,1.18 -0.47,0.71 -1.04,1.86 -0.66,1.42 -0.28,0.75 -0.54,1.5 -0.2,0.71 -0.34,1.39 -0.08,0.6 -0.55,4.32 4.36,-4.9 2.5,-2.7 1.56,-1.58 0.74,-0.68 1.46,-1.29 0.7,-0.54 1.38,-1.02 0.67,-0.42 2.64,-1.43 1.32,-0.38 2.64,-0.56 h 1.4 l 3.55,0.26 0.89,0.18 0.31,0.11 0.52,0.22 0.08,0.12 -0.09,0.95 -0.41,1.03 -0.36,0.68 -0.82,1.44 -0.53,0.84 -1.13,1.74 -0.65,0.94 -2.82,3.88 -1.55,1.9 -1.56,1.88 -0.77,0.87 -1.52,1.67 -0.73,0.72 -2.4,2.2 -1.83,1.52 -0.95,0.72 -1.91,1.41 -0.91,0.61 -1.76,1.14 -0.74,0.4 -1.95,0.98 -1.02,0.39 -2.08,0.74 -1.08,0.29 -2.2,0.5 -1.14,0.16 -2.32,0.26 -1.21,0.05 -2.44,0.02 -1.27,-0.07 -2.57,-0.21 -1.34,-0.2 -2.69,-0.45 -1.4,-0.31 -2.83,-0.69 -1.46,-0.43 -5.35,-1.37 -3.12,-0.55 -1.49,-0.1 -2.95,-0.09 -1.55,0.12 -3.2,0.35 -1.84,0.32 -1.09,0.02 -0.45,-0.32 -0.12,-0.44 -0.1,-0.5 -0.03,-0.33 -0.05,-0.74 v -0.47 -1.02 l 0.01,-0.63 0.04,-1.34 0.02,-0.8 0.56,-6.25 0.7,-4.01 0.52,-1.91 1.13,-3.76 0.72,-1.78 1.54,-3.47 0.91,-1.62 1.92,-3.15 1.1,-1.44 2.29,-2.8 1.27,-1.25 2.63,-2.4 1.44,-1.03 2.95,-1.97 1.59,-0.81 2.83,-1.14 2.16,-0.63 1.19,-0.24 2.44,-0.43 1.29,-0.14 2.62,-0.25 1.34,-0.04 m 247.3,-81.53 2.08,0.03 0.89,0.03 1.67,0.07 0.72,0.05 1.37,0.13 0.6,0.09 2.24,0.45 1.05,0.36 2.13,0.84 1.3,0.61 3.32,1.78 2.19,1.38 1.05,0.77 4.09,3.24 1.74,1.77 1.68,1.79 0.74,0.9 1.39,1.79 0.56,0.88 1.04,1.75 0.37,0.83 0.62,1.62 0.14,0.75 0.02,1.02 -0.28,0.43 -0.36,0.12 -0.9,0.17 -0.76,0.01 h -0.82 l -0.5,-0.01 -1.07,-0.04 -0.64,-0.02 h -2.79 l -1.67,0.13 -0.77,0.14 -2.9,0.75 -1.37,0.7 -2.75,1.55 -1.54,1.07 -0.64,0.6 -1.2,1.25 -0.49,0.73 -0.9,1.55 -0.37,0.94 -0.66,1.99 -0.27,1.21 -0.47,2.56 -0.19,1.53 -0.34,3.26 -0.13,1.94 -0.26,4.09 -0.11,2.4 -0.34,6.08 -0.28,3.47 -0.18,1.5 -0.4,2.86 -0.27,1.25 -0.57,2.38 -0.37,1.07 -0.8,2.06 -0.5,0.96 -1.08,1.9 -0.66,0.94 -1.41,1.87 -0.84,0.99 -1.79,2.01 -1.06,1.11 -5.4,4.76 -4.12,2.86 -2.27,1.24 -4.65,2.35 -2.46,0.95 -5,1.73 -2.57,0.6 -3.82,0.78 -1.96,0.25 -3.89,0.39 -1.77,0.05 -1.74,0.03 -0.78,-0.03 -1.52,-0.07 -0.66,-0.08 -1.23,-0.18 -0.48,-0.13 -0.87,-0.29 -0.28,-0.18 -0.68,-0.58 -0.16,-0.38 0.07,-0.21 0.25,-0.45 0.29,-0.28 0.7,-0.63 0.53,-0.41 1.37,-0.85 1.18,-0.59 0.68,-0.28 2.89,-1.08 1.38,-0.33 6.77,-1.89 4.52,-1.54 2.16,-0.86 4.21,-1.77 1.87,-0.92 3.56,-1.86 1.41,-0.92 1.51,-1.01 0.83,-0.57 0.34,-0.24 1.1,-0.86 0.25,-0.29 0.3,-0.49 -0.12,-0.15 -0.4,-0.25 -0.44,-0.07 -1.44,0.03 -1.46,0.18 -0.9,0.15 -1.9,0.34 -1.04,0.22 -2.12,0.48 -1.08,0.27 -3.09,0.74 -1.87,0.39 -0.78,0.14 -1.43,0.23 -0.49,0.05 -0.81,0.03 -0.11,-0.06 -0.05,-0.57 0.2,-0.71 0.21,-0.49 0.47,-1.05 0.31,-0.62 0.67,-1.28 0.39,-0.69 1.69,-2.85 0.9,-1.34 0.9,-1.32 0.44,-0.58 0.86,-1.1 0.39,-0.44 0.94,-0.81 0.93,-0.65 0.59,-0.36 1.26,-0.75 0.72,-0.41 1.51,-0.82 0.83,-0.42 3.44,-1.7 1.8,-0.8 3.61,-1.53 1.64,-0.6 1.05,-0.42 0.32,-0.22 -0.03,-0.12 -0.2,-0.23 -0.3,-0.14 -0.75,-0.33 -0.59,-0.22 -1.82,-0.47 -1.42,-0.1 -0.92,0.06 -2.01,0.2 -1.35,0.21 -1.41,0.24 -0.81,0.15 -1.69,0.32 -0.97,0.2 -1.63,0.26 -0.64,-0.04 -0.15,-0.17 -0.17,-0.48 0.04,-0.46 0.16,-1.08 0.16,-0.82 0.61,-2.07 0.63,-1.48 0.41,-0.78 1.88,-3.19 1.23,-1.62 2.64,-3.24 1.51,-1.5 3.12,-2.9 1.65,-1.2 2.31,-1.71 1.35,-1.03 0.54,-0.43 0.98,-0.79 0.3,-0.27 0.47,-0.43 v -0.06 l -0.35,-0.24 -0.56,-0.02 -0.4,0.05 -0.89,0.14 -0.54,0.13 -1.12,0.28 -0.62,0.18 -2.59,0.83 -1.27,0.51 -2.48,1.06 -0.93,0.54 -2.33,1.3 -1,0.47 -0.28,0.04 -0.44,-0.05 -0.09,-0.21 -0.11,-0.53 v -0.44 l 0.29,-1.85 0.45,-1.46 0.34,-0.81 1.64,-3.44 1.1,-1.79 2.36,-3.55 1.27,-1.54 1.28,-1.48 0.63,-0.63 1.25,-1.18 0.59,-0.43 1.81,-1.37 1.04,-0.82 0.4,-0.34 0.72,-0.62 0.21,-0.2 0.3,-0.34 -0.03,-0.04 -0.72,-0.2 -0.74,0.07 -0.47,0.13 -1,0.31 -0.58,0.24 -1.19,0.52 -0.64,0.32 -2.65,1.43 -1.29,0.87 -2.53,1.81 -1,0.93 -4.13,4.68 -1.22,1.79 -0.58,0.98 -1.13,2.03 -0.53,1.12 -1.07,2.33 -0.51,1.3 -1.03,2.68 -0.5,1.49 -1.01,3.09 -0.51,1.71 -1.01,3.55 -0.52,1.96 -1.36,4.98 -0.83,2.89 -0.39,1.26 -0.78,2.41 -0.38,1.07 -0.77,2.03 -0.4,0.92 -1.62,3.41 -0.97,1.54 -2.08,3.05 -1.33,1.67 -3.9,4.23 -2.91,2.63 -1.39,1.05 -1.38,1 -0.63,0.41 -1.22,0.75 -0.53,0.26 -1,0.43 -0.39,0.08 -0.7,0.06 -0.2,-0.12 -0.21,-0.53 -0.11,-0.72 -0.05,-0.52 -0.08,-1.15 -0.03,-0.71 -0.05,-1.52 -0.02,-0.88 -0.04,-3.8 0.02,-2.24 0.06,-4.65 0.06,-2.48 0.15,-5.01 0.11,-2.49 0.22,-4.92 0.14,-2.26 0.28,-4.36 0.17,-1.8 0.16,-1.73 0.09,-0.74 0.18,-1.4 0.09,-0.55 1.38,-5.47 1.38,-3.72 0.89,-1.85 1.91,-3.7 1.12,-1.82 2.37,-3.59 1.33,-1.72 2.75,-3.38 1.49,-1.58 3.05,-3.07 1.61,-1.39 3.27,-2.66 1.7,-1.14 3.42,-2.15 1.74,-0.85 2.28,-1.1 1.31,-0.59 0.59,-0.24 2.26,-0.79 1.23,-0.22 1.26,-0.2 0.72,-0.06 1.52,-0.11 0.9,-0.03 1.9,-0.05 1.15,-0.01 2.42,-0.01 h 1.46 m -198.02,0.01 2.16,0.03 0.9,0.03 1.69,0.07 0.72,0.06 1.36,0.15 0.6,0.11 2.25,0.54 1.15,0.48 1.18,0.52 0.67,0.32 1.39,0.69 0.82,0.41 4.54,2.66 2.96,2.08 1.42,1.17 2.81,2.42 1.33,1.32 2.62,2.72 1.22,1.45 2.37,2.95 1.08,1.55 2.09,3.14 0.92,1.62 1.75,3.26 0.74,1.66 1.37,3.33 0.53,1.68 1.06,4.16 0.29,1.56 0.12,0.87 0.24,1.81 0.11,1.03 0.2,2.15 0.1,1.23 0.17,2.58 0.09,1.48 0.16,3.1 0.08,1.78 0.15,3.71 0.08,2.11 0.24,8.22 0.05,2.5 0.01,1.15 0.02,2.23 v 0.99 l -0.01,1.89 -0.01,0.81 -0.04,1.5 -0.03,0.59 -0.06,1.05 -0.04,0.34 -0.09,0.55 -0.05,0.06 -0.57,0.29 -0.5,0.01 -0.31,-0.07 -1.38,-0.51 -0.86,-0.54 -1.83,-1.23 -1.01,-0.83 -2.1,-1.79 -1.08,-1.04 -2.19,-2.17 -1.06,-1.17 -2.1,-2.39 -0.96,-1.22 -1.84,-2.43 -0.77,-1.17 -1.4,-2.32 -0.48,-1.05 -0.55,-1.29 -0.4,-1.05 -0.23,-0.6 -0.93,-2.63 -0.49,-1.52 -2.05,-6.5 -0.85,-3.16 -2.32,-7.87 -1.6,-4.66 -0.83,-2.06 -1.69,-3.94 -0.89,-1.71 -1.82,-3.26 -0.96,-1.38 -1.96,-2.61 -1.05,-1.07 -2.14,-2.01 -1.15,-0.79 -2.35,-1.44 -1.26,-0.52 -2.59,-0.92 -1.39,-0.27 -3.5,-0.7 4.22,2.87 3.73,3.04 1.19,1.15 0.52,0.56 0.97,1.08 0.35,0.48 1.05,1.63 0.75,1.33 0.38,0.74 1.53,3.15 0.65,1.57 0.62,1.55 0.26,0.71 0.47,1.37 0.17,0.57 0.27,1.06 0.04,0.37 0.03,0.62 -0.11,0.1 -0.4,0.03 -0.46,-0.14 -0.3,-0.13 -1.35,-0.71 -0.77,-0.54 -2.95,-1.68 -2.28,-1.01 -1.12,-0.4 -2.21,-0.69 -0.9,-0.17 -0.86,-0.14 -0.35,-0.01 -0.63,0.01 -0.22,0.08 -0.1,0.4 0.29,0.47 0.31,0.32 0.7,0.69 0.49,0.39 1.04,0.82 0.63,0.43 5.57,4.66 3.37,3.61 1.37,1.87 1.32,1.87 0.55,0.92 1.04,1.81 0.39,0.86 0.71,1.69 0.21,0.77 0.32,1.49 v 0.65 l -0.08,1.3 -0.25,0.48 -0.34,0.07 -0.88,0.03 -0.81,-0.12 -0.87,-0.15 -0.55,-0.1 -1.18,-0.23 -0.72,-0.14 -4.08,-0.38 h -1.44 l -0.67,0.04 -1.29,0.1 -0.52,0.09 -3.82,0.65 5,1.71 6.35,2.56 3.61,1.89 1.5,1.04 2.79,2.13 1.09,1.16 1.97,2.39 0.69,1.28 2.13,3.85 0.65,1.11 0.28,0.45 0.5,0.8 0.16,0.23 0.72,1.34 0.15,0.7 -0.13,0.13 -0.81,0.03 -1.1,-0.13 -0.77,-0.13 -1.66,-0.3 -0.98,-0.21 -2.04,-0.44 -1.1,-0.26 -3.26,-0.74 -2.05,-0.44 -0.9,-0.17 -1.69,-0.32 -0.63,-0.1 -1.11,-0.15 h -0.26 l -1.03,0.04 -0.35,0.1 -0.01,0.13 0.09,0.3 0.2,0.27 0.52,0.61 0.41,0.46 1.45,1.24 1.37,0.93 0.84,0.5 1.8,1.01 1.02,0.52 2.11,1.05 1.14,0.52 4.73,2.06 2.43,0.89 4.82,1.66 2.14,0.54 5.57,1.64 1.54,0.56 0.67,0.28 1.28,0.56 0.54,0.28 1,0.55 0.4,0.28 0.71,0.54 0.24,0.27 0.41,0.52 0.08,0.26 0.09,0.5 -0.08,0.23 -0.33,0.42 -0.42,0.17 -0.98,0.31 -0.69,0.11 -1.49,0.2 -0.89,0.06 -1.85,0.1 -1.01,0.01 -4.24,-0.09 -2.1,-0.2 -2.09,-0.24 -0.96,-0.16 -1.87,-0.34 -0.81,-0.22 -5.45,-1.72 -3.53,-1.39 -1.69,-0.8 -3.33,-1.66 -1.58,-0.93 -3.09,-1.91 -1.44,-1.04 -2.81,-2.12 -1.27,-1.13 -2.46,-2.3 -1.09,-1.2 -2.08,-2.43 -0.87,-1.26 -1.64,-2.54 -0.63,-1.3 -1.68,-3.74 -0.74,-2.22 -0.23,-1.3 -0.22,-1.34 -0.08,-0.78 -0.15,-1.63 -0.06,-0.96 -0.11,-2.04 -0.05,-1.21 -0.1,-2.56 -0.04,-1.51 -0.22,-5.28 -0.18,-3.08 -0.12,-1.34 -0.25,-2.56 -0.16,-1.12 -0.34,-2.13 -0.21,-0.92 -0.45,-1.78 -0.27,-0.78 -0.57,-1.49 -0.34,-0.67 -1.5,-2.51 -1.01,-1.15 -3,-2.83 -2.08,-1.34 -1.14,-0.43 -2.38,-0.7 -1.35,-0.13 -2.85,-0.11 -1.67,0.14 -2.18,0.12 -1.17,-0.01 -0.45,-0.06 -0.81,-0.17 -0.26,-0.15 -0.45,-0.36 -0.1,-0.26 -0.1,-0.57 0.07,-0.39 0.23,-0.83 0.23,-0.52 0.55,-1.12 0.39,-0.68 0.85,-1.43 0.54,-0.85 2.97,-4.02 2.22,-2.36 1.3,-1.06 2.71,-2.07 1.6,-0.97 3.38,-1.91 1.99,-0.95 2.09,-0.97 1.23,-0.53 0.57,-0.22 2.19,-0.72 1.23,-0.2 1.26,-0.18 0.72,-0.06 1.52,-0.11 0.9,-0.03 1.89,-0.05 1.13,-0.01 2.4,-0.01 h 1.42 m 161.67,-67.2 0.65,0.17 0.18,0.18 0.29,0.65 0.09,0.66 -0.01,0.42 -0.21,1.91 -0.33,1.18 -0.37,1.88 -0.16,1.49 -0.03,0.87 -0.05,1.81 0.02,1.03 0.06,2.13 0.08,1.18 0.18,2.45 0.13,1.34 0.29,2.76 0.19,1.5 0.4,3.08 0.24,1.65 0.52,3.39 0.3,1.81 0.61,4.56 0.31,3.24 0.1,1.65 0.17,3.32 0.02,1.63 v 3.21 l -0.06,1.5 -0.14,3.02 -0.11,1.73 -0.07,0.75 -0.32,2.76 -0.29,1.19 -0.67,2.32 -0.53,1.27 -0.56,1.3 -0.34,0.74 -0.73,1.52 -0.44,0.87 -1.71,3.32 -1.12,2 -0.57,0.91 -2.26,3.4 -1.24,1.44 -2.56,2.75 -1.5,1.25 -3.16,2.45 -1.92,1.24 -2.11,1.34 -0.89,0.51 -1.7,0.94 -0.7,0.3 -1.32,0.51 -0.54,0.09 -0.98,0.07 -0.39,-0.13 -0.7,-0.38 -0.25,-0.37 -0.46,-0.85 -0.15,-0.61 -0.25,-1.33 -0.06,-0.86 -0.09,-1.83 v -7.47 l 4.75,-3.99 4.24,-3.55 1.37,-1.14 0.6,-0.5 1.13,-0.94 0.41,-0.34 1.26,-1.14 0.59,-0.65 0.17,-0.27 0.25,-0.49 v -0.18 l -0.08,-0.34 -0.16,-0.11 -0.41,-0.17 -0.32,-0.02 -0.73,-0.01 -0.48,0.06 -1.05,0.16 -0.64,0.14 -1.35,0.33 -0.8,0.23 -4.15,1.19 -1.16,0.33 -0.44,0.12 -0.79,0.22 -0.21,0.06 -0.73,-0.02 -0.34,-0.31 -0.09,-0.34 -0.16,-0.81 -0.03,-0.63 -0.01,-1.43 0.04,-0.98 0.53,-3.99 0.82,-2.27 0.75,-1.07 0.8,-1.08 0.5,-0.55 1.08,-1.11 0.65,-0.59 1.39,-1.2 0.82,-0.65 1.73,-1.34 1,-0.74 2.38,-1.81 1.4,-1.11 0.56,-0.48 1.01,-0.89 0.32,-0.31 0.5,-0.55 0.01,-0.1 -0.65,-0.6 -1.09,-0.12 -0.78,0.07 -1.71,0.23 -1,0.23 -2.07,0.55 -1.09,0.39 -2.94,0.85 -0.75,0.14 -0.26,0.01 h -0.43 l -0.06,-0.07 -0.02,-0.78 0.16,-1.03 0.16,-0.72 0.36,-1.56 0.23,-0.91 0.52,-1.91 0.3,-1.02 0.98,-3.43 0.49,-1.83 0.17,-0.7 0.27,-1.25 0.05,-0.42 0.05,-0.68 -0.07,-0.14 -0.19,-0.14 -0.19,0.13 -0.43,0.39 -0.31,0.4 -0.69,0.91 -0.43,0.65 -0.95,1.41 -0.57,0.89 -2.8,4.8 -1.74,3.39 -0.79,1.77 -1.53,3.59 -0.69,1.85 -1.31,3.72 -0.57,1.89 -1.07,3.79 -0.44,1.89 -0.82,3.79 -0.3,1.87 -0.54,3.73 -0.15,1.81 -0.24,3.59 v 1.73 l -0.07,2.76 -0.12,1.65 -0.08,0.69 -0.18,1.26 -0.11,0.42 -0.23,0.69 -0.13,0.08 -0.61,0.07 -0.48,-0.21 -0.28,-0.21 -0.56,-0.5 -0.31,-0.35 -0.62,-0.76 -0.33,-0.47 -1.33,-2.09 -0.66,-1.31 -1.31,-2.78 -0.58,-1.55 -1.68,-5.15 -0.87,-3.44 -0.32,-1.71 -0.55,-3.42 -0.16,-1.7 -0.23,-3.4 -0.01,-1.68 0.07,-3.35 0.15,-1.65 0.37,-3.28 0.3,-1.62 0.67,-3.2 0.44,-1.57 0.95,-3.1 0.58,-1.52 1.24,-2.99 0.72,-1.45 1.51,-2.86 0.86,-1.38 1.78,-2.71 0.99,-1.3 2.04,-2.55 1.12,-1.21 2.29,-2.37 1.25,-1.11 2.54,-2.17 1.37,-1.01 2.79,-1.95 1.48,-0.9 3.03,-1.72 1.59,-0.77 6.65,-2.92 2.04,-0.79 0.95,-0.33 1.85,-0.61 0.83,-0.24 1.61,-0.44 0.71,-0.15 1.33,-0.25 0.55,-0.04 1.01,-0.04 m -118.66,0.15 0.79,0.18 1.68,0.41 0.96,0.29 1.97,0.62 1.06,0.38 4.38,1.64 2.16,0.97 2.13,0.97 0.99,0.51 1.93,1 0.84,0.5 4.4,2.95 2.8,2.23 1.33,1.22 2.6,2.54 1.22,1.36 2.36,2.79 1.09,1.48 2.09,3.01 0.94,1.57 1.79,3.17 0.78,1.64 1.46,3.3 0.59,1.68 1.09,3.37 0.39,1.7 0.7,4.5 0.22,3.33 v 1.78 l -0.09,3.61 -0.14,1.86 -0.37,3.75 -0.28,1.87 -0.63,3.72 -0.4,1.81 -0.86,3.54 -0.52,1.66 -1.07,3.21 -0.61,1.43 -1.26,2.73 -0.7,1.13 -0.92,1.35 -0.56,0.66 -0.25,0.21 -0.48,0.33 -0.21,0.05 -0.39,0.01 -0.17,-0.12 -0.32,-0.31 -0.12,-0.27 -0.24,-0.63 -0.08,-0.44 -0.15,-0.95 -0.05,-0.59 -0.06,-1.27 v -0.76 l -0.25,-5.12 -0.42,-3.65 -0.31,-1.92 -0.71,-3.87 -0.45,-1.99 -0.98,-3.99 -0.57,-1.99 -2.52,-7.98 -1.54,-3.75 -1.58,-3.68 -0.84,-1.73 -1.72,-3.37 -0.91,-1.53 -1.39,-2.37 -0.75,-1.26 -0.3,-0.49 -0.54,-0.89 -0.21,-0.33 -0.38,-0.58 -0.14,-0.18 -0.47,-0.51 -0.14,0.01 -0.27,0.16 -0.18,0.17 -0.02,0.88 0.19,1.16 0.18,0.8 0.41,1.74 0.28,1.02 0.59,2.12 0.35,1.14 0.96,3.24 0.54,1.93 0.2,0.78 0.35,1.42 0.1,0.46 0.12,0.74 -0.05,0.04 -0.41,0.01 -0.52,-0.12 -0.36,-0.1 -1.66,-0.56 -0.99,-0.42 -3.53,-1.05 -1.24,-0.24 -0.58,-0.07 -1.11,-0.11 -0.45,0.01 -3.28,0.04 3.5,2.71 1.75,1.41 1.4,1.18 0.76,0.67 3.15,2.77 1.35,1.27 1.51,1.44 0.84,0.84 0.34,0.38 1.17,1.41 0.36,0.68 0.6,1.41 0.16,0.88 0.28,1.9 0.11,1.31 0.47,5.65 -3.38,-1.37 -3.62,-1.23 -2.42,-0.61 -1.08,-0.18 -2.02,-0.26 -0.73,0.03 -0.66,0.05 -0.23,0.06 -0.4,0.17 -0.08,0.13 0.32,0.71 0.69,0.81 0.54,0.52 1.22,1.12 0.75,0.63 1.6,1.31 0.9,0.68 5.04,4.27 1.35,1.35 0.5,0.57 0.86,1.07 0.2,0.37 0.96,2.81 0.36,2.17 0.03,1.12 -0.03,2.21 -0.16,0.99 -0.43,1.88 -0.37,0.69 -0.72,1.17 -0.44,0.29 -0.97,0.38 -0.68,-0.14 -0.73,-0.19 -0.44,-0.18 -0.92,-0.42 -0.55,-0.3 -1.17,-0.65 -0.68,-0.42 -1.45,-0.9 -0.84,-0.55 -5.06,-3.81 -3.17,-2.92 -1.44,-1.61 -2.77,-3.29 -1.19,-1.74 -2.25,-3.54 -0.88,-1.8 -1.74,-3.94 -0.94,-2.61 -0.37,-1.33 -0.66,-2.68 -0.23,-1.39 -0.4,-2.83 -0.09,-1.51 -0.13,-3.07 0.03,-1.66 0.13,-3.4 0.17,-1.85 0.38,-3.81 0.29,-2.09 0.64,-4.3 0.41,-2.37 0.93,-6.09 0.44,-3.67 0.13,-1.71 0.3,-6.61 -0.17,-3.36 -0.11,-2.52 -0.04,-1.45 -0.01,-0.62 0.01,-2.2 0.07,-0.75 0.18,-1.28 0.17,-0.37 0.39,-0.57 0.27,-0.11 1.27,-0.08 z"
       fill="rgba(42,129,61,1)"
       id="path1"
       style="opacity:1;fill:#34813f;fill-opacity:1" />
    <path
       id="path2"
       d="m 282.09961,75.970703 -7.54883,0.08008 -3.77148,0.148438 -2.65625,0.130859 -1.60352,0.05078 -1.84961,0.119141 -1.41015,0.07031 -3.74024,0.310547 -6.29492,0.566407 5.14453,-0.466797 -4.44922,0.359375 -1.79492,0.207031 -0.0449,0.0039 -0.0703,0.0098 -0.1211,0.01367 -2.10937,0.246093 -8.22852,1.070313 -4.05078,0.689453 -12.65039,2.619141 12.65039,-2.609375 -17.61914,3.640625 -11.61133,3.058593 -5.62891,1.791016 -11.14062,3.759766 -5.30078,2.099609 -5.23828,2.121094 -2.53125,1.109375 -0.98438,0.443359 -4.07617,1.826172 -2.38867,1.160162 -4.73047,2.33984 -2.19922,1.17968 -0.041,0.0215 -4.41016,2.41992 -2.08008,1.24023 -2.80859,1.7207 -1.22071,0.74805 -0.0293,0.0195 -1.86133,1.24024 -0.0293,0.0215 -0.93945,0.64649 -2.73047,1.88281 -1.67969,1.26953 -3.25976,2.56056 -1.35547,1.20312 -0.0859,0.0762 -0.01,0.01 -2.78907,2.56055 -0.58984,0.63085 -0.10156,0.10743 -0.5293,0.55272 -2.28906,2.5586 -0.95117,1.27148 -1.76954,2.53906 -0.66992,1.25 -0.41992,0.9707 -0.41992,1.09961 -0.28125,0.75 -0.58984,1.64063 -0.34961,1.01953 -0.75977,2.15039 -0.42969,1.25977 -0.90039,2.6289 -0.5,1.48047 -1.03906,3.06055 -0.56055,1.68945 -1.16015,3.46094 -0.6211,1.85937 -1.26953,3.82032 -0.66992,2.02929 -1.36914,4.13086 -0.71094,2.17969 -1.45898,4.41016 -0.75,2.29883 -3.08008,9.41992 -1.62109,4.98047 -3.26954,10.05078 -1.67968,5.20898 -3.39063,10.48047 -1.69922,5.2793 -3.390622,10.54101 -1.669922,5.18946 -3.289063,10.30078 -1.580078,4.94922 -3.089844,9.74023 -1.441406,4.55078 -1.419922,4.48828 -0.669922,2.15039 -1.330078,4.23047 -0.628906,2 -1.220703,3.91016 -0.570313,1.83984 -1.109375,3.57031 -0.509765,1.65039 -0.980469,3.18946 -0.439453,1.42969 -0.839844,2.76953 -0.361328,1.21093 -0.689453,2.31055 -0.279297,0.96875 -0.521485,1.80078 -0.199218,0.69922 -0.339844,1.26953 -0.09961,0.41016 L 76,303.89062 V 304 v 0.0996 l 0.220703,0.83984 0.369141,0.74024 0.310547,0.46093 0.71875,1 0.490234,0.61915 1.080078,1.30078 0.691406,0.78906 1.478516,1.64062 0.900391,0.97071 1.919922,2.02929 1.130859,1.16016 2.378906,2.44922 1.380859,1.39062 0.910157,0.91016 -1.201172,-1.25 3.181641,3.29883 1.828124,1.88086 3.810547,3.90039 2.150391,2.17969 4.78906,4.83984 -3.08984,-3.11914 14.30078,14.75976 14.24023,15.57032 6.84961,7.92968 13.5,15.95899 6.47071,8.11133 12.74023,16.30859 6.08008,8.28125 11.95898,16.63867 5.67969,8.42969 11.16016,16.94141 5.28125,8.57031 10.32812,17.19922 4.85156,8.69922 9.5,17.4414 4.41993,8.8086 11.68945,23.27148 -0.17969,7.72852 -0.2207,6.93164 -0.0898,2.26953 -0.0488,0.99023 -0.0918,1.87891 -0.0488,0.68945 -0.041,2.81055 0.18164,1.59961 0.22851,0.78125 0.56055,1.58008 0.46094,0.92968 1.03906,1.95899 0.75,1.25 1.76953,2.70117 1.42969,2 0.79101,1.00977 1.59961,2.02929 0.79102,0.92969 1.56836,1.80078 0.71094,0.74024 1.33007,1.33984 0.60938,0.56055 1.17969,1.04883 0.55078,0.41992 1.05078,0.75976 0.47852,0.28125 0.91992,0.49024 0.41992,0.13867 0.81055,0.20117 0.37109,0.01 0.68945,-0.0703 0.32031,-0.14062 0.58985,-0.33984 0.26953,-0.26954 0.5,-0.61914 0.21094,-0.40039 0.1289,-0.75976 0.0801,-1.02149 0.0293,-0.73828 0.0801,-1.65039 0.0312,-1.04101 0.0703,-2.24024 0.0293,-1.31836 0.0605,-2.78125 0.0293,-1.58008 0.0605,-3.28906 0.0293,-1.81055 0.0508,-3.75 0.0195,-2.02929 0.0508,-4.16016 0.0195,-2.2207 0.0391,-4.5293 0.0195,-2.39062 0.041,-4.86915 0.01,-2.54101 0.0606,-10.42969 0.0195,-5.55078 0.041,-11.2793 0.01,-5.83007 0.0195,-11.7793 v -5.95117 l -0.01,-11.92969 -0.01,-5.90039 -0.0215,-11.71875 -0.0293,-5.66992 -0.0391,-11.17969 -0.0312,-5.27148 -0.0391,-5.20899 -0.0215,-2.5 -0.0391,-4.92969 -0.0195,-2.33984 -0.041,-4.61133 -0.0195,-2.16992 -0.0508,-4.25 -0.0293,-1.96875 -0.0508,-3.8418 -0.0293,-1.75 -0.0605,-3.38867 -0.0391,-1.50977 -0.0606,-2.90039 -0.0293,-1.25 -0.0801,-2.35937 -0.0293,-0.96094 -0.0801,-1.7793 -0.041,-0.66015 -0.0801,-1.15039 -0.0391,-0.33008 -1.29101,-7.75 -1.16016,-5.33984 -0.69922,-2.66016 -1.48047,-5.2793 -0.83007,-2.5 -1.70899,-4.91015 -0.91992,-2.20117 -3.38086,-7.04883 -2.66016,-4.79102 -1.33984,-2.11914 -1.33984,-2.06055 -0.63086,-0.91015 -1.22852,-1.71875 -0.56055,-0.70117 -1.07031,-1.25977 -0.44922,-0.42969 -0.82031,-0.68945 -0.30078,-0.10156 -1.16016,-0.01 -1.13867,0.21094 -0.70117,0.19922 -3.07031,1 -1.61914,0.74023 -6,2.24024 -3.75,0.81054 -1.88086,0.0801 -3.78907,-0.0801 -2.04101,-0.36132 -2.06836,-0.41993 -1.10156,-0.28906 -2.22852,-0.63086 -1.20117,-0.40039 -3.92969,-1.23828 -2.34961,-0.68164 L 211,342.42969 208.93945,341.93945 208,341.75977 l -1.83008,-0.29883 -0.84961,-0.0801 -3.23047,-0.15039 -1.5,0.18945 -2.95898,0.54102 -0.31055,0.0996 0.36914,0.26953 L 197.23047,342 h -0.29102 l -0.59961,0.24023 -0.0391,0.16016 h -0.002 l -0.20899,0.0703 -3.28906,1.31836 -2.01172,1.05078 -0.9082,0.59961 -1.76172,1.25977 -0.78906,0.71094 -1.50977,1.48046 -0.66015,0.82032 -1.25977,1.68945 -0.53125,0.91992 -1,1.90039 -0.4082,1.01953 -0.74024,2.10938 -0.28125,1.13086 -0.47851,2.30859 -0.15039,1.23047 -0.58008,4.89063 -2.76953,-1.42969 -2.8418,-2.06055 -2.00976,-1.9707 -0.99024,-1.19922 -1.94922,-2.51953 -0.89062,-1.38086 -1.67969,-2.81055 -0.66992,-1.41992 -1.83008,-4.69922 -0.87891,-3.19922 -0.21093,-1.28125 0.15039,2.89063 -0.17969,-3.31055 -0.23047,-1.5 -0.38086,-4.85937 0.10156,-3.34961 -0.0215,0.78906 0.0703,-0.88867 0.17774,-1.65625 0.5332,-3.39453 0.42969,-1.73047 0.94922,-3.46875 0.63085,-1.72071 1.34961,-3.41992 0.81055,-1.66992 1.71875,-3.31055 0.99024,-1.58984 1.3457,-2.04492 1.71484,-2.35547 1.13086,-1.32031 2.3086,-2.58985 1.25,-1.19922 2.19921,-2 0.47071,-0.41015 1.29101,-1 2.81055,-2.07031 1.48828,-0.91993 3,-1.74023 -1.17969,0.58008 4.13086,-2.04883 -2.76953,1.37891 1.44922,-0.68946 2.9043,-1.27343 0.58593,-0.2168 2.37891,-0.7793 2.46875,-0.75586 h 0.002 l 1.80078,-0.375 3.18946,-0.49023 2.33008,-0.20899 1.24023,-0.0508 5.12891,-0.0508 2.62109,0.18164 5.19922,0.5 2.36133,0.43945 2.30859,0.47071 1.05078,0.27929 2.01953,0.58008 0.85938,0.33985 3.1914,1.5 2.16993,1.25976 1.07031,0.74024 4.25,3.16992 1.83008,1.75976 1.75976,1.76954 0.76953,0.88085 1.42969,1.74024 0.56055,0.83008 1,1.6289 0.29883,0.74024 0.4707,1.41015 v 0.58985 l -0.60938,0.0996 -0.96093,-0.25977 -0.70899,-0.25976 -1.53125,-0.60938 -0.92968,-0.41016 -1.93946,-0.90039 -1.07031,-0.53906 -6.92969,-3.02148 -4.51953,-1.46875 -2.27148,-0.47071 -4.54883,-0.75976 -2.33985,-0.13086 -4.74023,-0.0996 -2.5,0.18945 -4.58008,0.6211 -0.10547,0.0234 -0.26562,0.0371 -3.23828,0.75977 -1.57032,0.51953 -3.10156,1.13086 -1.48828,0.68945 -1.49023,0.75 2.34961,-1.09961 -2.83008,1.33008 -1.33985,0.75977 1.08985,-0.6211 -0.71094,0.36133 -1.37891,0.85938 -0.0644,0.041 -1.57617,0.94922 -1.21875,0.88867 -2.39063,1.83008 -1.08984,0.99024 -2.08984,2.04101 -0.91993,1.08008 -1.73046,2.20898 -0.72071,1.16016 -0.53906,0.94531 -0.0508,0.0645 -0.18945,0.35742 -0.23047,0.40234 -0.0781,0.16602 -0.24218,0.44531 -1.24024,2.44922 -0.59961,1.40039 -0.19922,0.57031 -0.33008,1.03906 -0.0605,0.39063 -0.0606,0.66015 0.0606,0.17969 0.18945,0.25 0.19141,-0.0391 0.43945,-0.20117 0.30078,-0.2793 0.66016,-0.67969 0.41992,-0.53125 0.87891,-1.18945 0.51953,-0.81055 1.80078,-2.41015 1.41992,-1.60938 0.80078,-0.7793 1.34766,-1.19921 1.73242,-1.47071 2.1582,-1.58398 0.11133,-0.0762 2.34961,-1.54102 1.33008,-0.83008 -0.31055,0.16993 0.61133,-0.33985 1.1582,-0.61914 0.49024,-0.2207 0.89062,-0.35938 0.33008,-0.0605 0.55078,-0.0488 -0.0508,0.01 0.14062,0.0898 0.0195,0.0195 0.1289,0.4707 v 0.47852 l -0.11914,0.57031 -0.11914,0.40039 -0.31055,1.21094 -0.18945,0.8789 0.0684,-0.24023 -0.78906,3.04101 -0.2793,2.00977 -0.0117,0.86914 0.0508,1.61133 0.15039,0.5293 0.16993,0.4707 -0.15039,-0.41016 0.0605,0.26953 0.10938,0.17969 0.0605,0.0606 0.0391,0.0488 0.0937,0.0801 -0.0723,-0.0586 0.12891,0.12891 h 0.0273 l 0.082,0.0703 h 0.16016 l 0.52148,-0.33984 0.33008,-0.38086 0.11914,-0.13868 0.0606,-0.0898 0.11914,-0.16992 0.51953,-0.78125 0.28125,-0.51953 0.10547,-0.20508 0.27344,-0.45508 0.52148,-1.16992 2.13867,-3.96094 0.84961,-1.33984 0.43164,-0.59961 0.83008,-1.15039 0.37891,-0.44922 1.70117,-1.83008 1.03906,-0.75976 0.66016,-0.21094 1.44922,-0.31836 1.08008,-0.0605 1.16015,-0.0508 0.69141,-0.01 1.48828,-0.01 h 0.89062 l 2.89063,0.0801 1.67969,0.11914 0.66992,0.0801 1.20898,0.1914 0.38086,0.11914 0.58008,0.24024 v 0.14062 l -0.24023,0.74024 -0.36915,0.80859 -0.27148,0.51953 -1.29883,2.32032 -0.82031,1.30078 -2.11914,4.23046 -0.49024,1.37891 -0.15039,0.59961 L 217,322 v 0.41992 l 0.10938,1.63086 0.14062,0.25 0.11914,0.0293 0.28125,-0.01 0.20899,-0.12109 0.48046,-0.3086 0.33008,-0.27148 0.73047,-0.62891 0.48047,-0.45117 1.0293,-0.97851 0.64062,-0.64063 1.37891,-1.35937 0.84961,-0.83985 2.85156,-2.68164 1.78906,-1.52929 0.7793,-0.59961 1.48047,-1.07032 0.58008,-0.33007 L 232.28906,312 h 0.29102 l 1.06054,0.23047 0.97852,0.36914 0.58008,0.25977 2.53125,1.23046 1.29883,0.75 0.54101,0.32032 -0.26953,-0.18946 2.29883,1.58008 1.07031,0.88867 0.33008,0.41993 0.55078,0.81054 0.11914,0.41992 -0.0195,-0.0605 -0.0801,0.13086 -0.68945,0.80078 -0.5,0.53906 -1.0918,1.16016 -0.64844,0.66992 -1.38085,1.39062 -0.75977,0.74024 -3.09961,3.32812 -1.5,1.95117 -0.42969,0.76954 -0.38086,0.74023 -0.0996,0.30078 -0.14062,0.56836 0.0195,0.2207 0.10156,0.38086 0.13868,0.0996 0.36132,0.16992 0.2793,-0.01 0.83008,-0.28125 1.0293,-0.43945 0.6914,-0.31055 1.47852,-0.69922 0.86132,-0.41992 1.78907,-0.86914 0.93945,-0.48047 2.81055,-1.34961 1.78125,-0.79102 0.78906,-0.32031 1.48047,-0.57031 0.57031,-0.17969 L 249.78906,326 h 0.25 l 1.08008,0.33984 0.90039,0.56055 0.51953,0.43945 1.10156,0.97071 0.61915,0.6289 1.26953,1.33985 0.6914,0.80078 1.41016,1.68945 0.75,0.9707 1.5293,1.99024 0.80078,1.10937 3.26953,4.67969 1.69922,2.67969 2.23047,3.41016 1.3789,2.00976 0.5918,0.79102 1.08008,1.44922 0.38867,0.45117 0.36133,0.38867 0.1289,0.12109 0.23047,0.17969 h 0.0605 l 0.22852,-0.49023 0.14062,-0.78907 0.0605,-0.60156 0.10937,-1.33008 0.0508,-0.83984 0.0898,-1.78906 0.0391,-1.0293 0.0606,-2.16016 0.0293,-1.1914 0.041,-2.43946 0.0195,-1.31054 0.0293,-5.39844 -0.0195,-2.81055 -0.0488,-5.65039 -0.0605,-2.67969 -0.14062,-5.24023 -0.0899,-2.23047 -0.10937,-2.15039 -0.0508,-0.93945 -0.11915,-1.7793 -0.0703,-0.73047 -0.14062,-1.32031 -0.0176,-0.082 0.0176,-0.1875 -0.0293,-0.58985 L 272,307 l -0.0293,-0.0215 -0.0215,-0.12891 -0.0898,-0.16992 -0.78907,-1.20899 -0.79101,-1.08008 -0.5,-0.63085 -2.20899,-2.66016 -1.18945,-1.28906 -5.45117,-6.72071 -1.89063,-2.91406 -2.08984,-3.60547 -0.33984,-0.66992 -2.32032,-5 -0.86914,-2.61133 -1.34765,-4.55078 -0.3125,-1.48828 -0.82032,-4.64062 0.21094,1.16992 -0.26758,-1.81641 -0.002,-0.0137 -0.15039,-1.72852 -0.29102,-4.83008 0.0606,-2.4707 0.24023,-4.98047 0.33008,-2.52929 0.7793,-5.08985 0.52539,-2.25195 0.18164,-0.73828 1.21289,-4.74024 0.87109,-2.58984 0.69922,-1.89062 0.66016,-1.64844 0.41992,-0.98047 0.89063,-2.08985 0.50976,-1.17968 1.08008,-2.44141 0.58984,-1.33984 2.5293,-5.58985 1.40039,-3.03906 2.88086,-6.1914 1.46875,-3.10938 2.92969,-6.17969 1.40039,-2.87109 1.37109,-2.81836 0.64844,-1.32031 1.26172,-2.57032 0.58984,-1.16015 1.12891,-2.23047 0.5,-0.96875 0.95117,-1.83008 0.39844,-0.73047 0.74023,-1.33984 0.27149,-0.46094 0.5,-0.7793 0.13867,-0.15039 1.41992,-0.73046 1.03125,0.23046 0.54883,0.46094 1.09961,1.13867 0.57031,0.91016 1.15039,2.04101 0.58008,1.34961 0.53906,1.19922 0.54102,1.16016 0.34961,0.73047 0.74023,1.57031 0.42969,0.91992 0.91016,1.91016 0.51953,1.07031 2.16992,4.5293 1.23047,2.5293 2.53125,5.21093 1.30859,2.67969 3.83985,7.99023 2.2207,4.79883 0.94922,2.18164 1.82031,4.21875 0.75977,1.92969 1.4414,3.75 0.59961,1.74024 1.10938,3.40039 0.43945,1.60937 0.83008,3.16016 0.31054,1.53125 0.22071,1.31054 0.11914,1.04883 0.32031,3.32031 0.0801,1.7793 0.11914,3.67969 V 258.5 l -0.13867,6.4707 -0.28125,3.92969 -0.24024,1.81055 -0.55859,3.52929 -0.40039,1.65039 -0.89063,3.22852 -0.58007,1.55078 -1.25,3.06055 -0.78907,1.50976 -1.66015,3 -1.00977,1.50977 -2.12109,3.06055 -1.24024,1.58007 -2.61914,3.21876 -1.50976,1.71093 -2.39063,2.89063 -1.41992,1.89844 -0.58984,0.88085 -1.07032,1.68946 -0.36914,0.71093 -0.60937,1.29883 -0.0918,0.44141 -0.17969,1.34961 -0.10937,1.21875 -0.041,0.75 -0.0898,1.58984 -0.0293,0.91016 -0.0703,1.89062 -0.0195,1.0293 -0.0801,4.37109 -0.01,2.39063 v 4.87891 l 0.0293,2.46093 0.0703,4.88868 0.0606,2.28124 0.13867,4.38868 0.0918,1.83984 0.0996,1.77148 0.0488,0.75977 0.11132,1.43945 0.0586,0.57032 0.12109,1.05078 0.0605,0.34961 0.13867,0.58984 0.0703,0.0996 0.54102,0.66016 0.28906,0.24023 0.11914,0.0195 0.23047,-0.0391 0.0996,-0.12109 0.20117,-0.29883 0.0996,-0.25 0.89063,-1.69141 0.96875,-1.62891 0.63086,-0.99023 1.33984,-2.08008 0.76953,-1.14062 1.58008,-2.34961 0.83008,-1.19922 1.66992,-2.41016 0.83008,-1.16015 1.64062,-2.27149 0.75,-1.00976 1.45899,-1.92969 0.61132,-0.76953 1.14844,-1.40039 0.40039,-0.42969 3.11133,-2.65039 0.98828,-0.60938 0.43164,-0.18945 0.78926,-0.3007 h 0.29101 l 1.31836,0.2793 1.31055,0.43164 0.79101,0.31836 1.66992,0.6914 0.91016,0.41992 1.84961,0.87891 0.91992,0.48047 2.67969,1.35938 1.63086,0.79101 0.68945,0.32031 1.2793,0.58008 0.43945,0.16992 0.76172,0.2793 h 0.11914 l 0.40039,-0.25977 0.0293,-0.41015 -0.0996,-0.31055 -0.25977,-0.66992 -0.23046,-0.41992 -0.50977,-0.86914 -0.33008,-0.49024 -1.53906,-2.08008 -0.9707,-1.10937 -2.06055,-2.20117 -1.10938,-0.98047 -4.58007,-4.0293 3.30078,-2.45898 2.98828,-2.15039 1.7207,-1.11133 0.75,-0.37891 1.43946,-0.65039 0.66015,-0.15039 1.26953,-0.17969 0.61133,0.0899 1.20899,0.30078 0.62109,0.33984 1.25976,0.81055 0.67969,0.59961 1.40039,1.32031 0.78907,0.85938 1.66015,1.85937 0.96094,1.13086 2.45898,2.79883 1.47071,1.57031 0.59961,0.58008 1.09961,1.03125 0.36132,0.25976 0.58008,0.33985 0.0488,-0.13086 0.12109,-2.17969 -0.35156,-1.93945 -0.34961,-1.11133 -0.80859,-2.26953 -0.55078,-1.15039 -1.17969,-2.26953 -0.67969,-1.0293 -1.91016,-3.28125 -0.38085,-0.86914 -0.0899,-0.31055 -0.10937,-0.53906 0.0703,-0.11133 0.71875,-0.30859 0.95117,-0.17969 0.66016,-0.0703 1.41992,-0.13086 0.83008,-0.0391 1.72851,-0.0605 h 0.92969 l 2.05078,0.0195 1.16016,0.0312 0.49023,0.0293 1.73047,0.17969 0.64844,0.18945 1.16016,0.45117 0.50976,0.37891 1.01172,0.85156 0.58008,0.61914 1.21875,1.5 0.93945,1.31055 0.5,0.75 1.99024,3.17968 0.78124,1.50977 2.85938,5.5 0.30078,-4.7207 -0.12109,-3.94922 -0.16992,-1.18946 -0.11915,-0.5 -0.25976,-0.90039 -0.16016,-0.29101 -0.7207,-1.75977 0.0195,-0.69922 0.26953,-0.10937 0.73047,-0.0703 0.63086,0.18945 1.46875,0.5293 1.02148,0.49023 3.97852,2.40039 2.77148,2.11914 1.32032,1.20117 2.52929,2.44922 1.04883,1.22071 0.99024,1.2207 0.41992,0.58008 0.78125,1.14844 0.28906,0.54101 1.58008,2.53906 0.46094,0.58985 0.18945,0.1914 0.33008,0.2793 h 0.0996 l 0.26953,-0.33984 -0.01,-0.55078 -0.0801,-0.39844 -0.22852,-0.88086 -0.18164,-0.54102 -0.41016,-1.1289 -0.25976,-0.63086 -1.16992,-2.66992 -0.71876,-1.35938 -1.5,-2.71094 -0.78124,-1.1289 -2.28907,-2.93946 -1.67969,-1.82031 -0.91992,-0.83008 -1.87109,-1.62109 -1.00977,-0.72852 -2.05078,-1.41015 -1.07812,-0.63086 -4.48047,-2.32031 -2.42969,-0.83985 -4.96094,-1.46875 -2.60937,-0.41992 -5.30078,-0.61133 -2.71875,0.0312 -5.48047,0.2793 -2.75,0.48047 -5.50977,1.18945 -2.71093,0.94922 -5.37891,2.13086 -2.5918,1.41992 -2.50976,1.2793 -1.47852,0.66015 -0.61133,0.22071 -1.1289,0.35937 -0.38086,0.0606 -0.61914,0.01 -0.0898,-0.14062 -0.11132,-0.66016 0.11132,-0.57812 0.16016,-0.35156 0.35937,-0.75 0.26954,-0.42969 0.58984,-0.90039 0.38086,-0.5 1.71875,-2.11914 1.15039,-1.19922 2.48047,-2.49024 1.4707,-1.33008 5.25977,-3.9707 3.74023,-2.05078 2.04883,-0.75976 4.25,-1.33985 2.39062,-0.42969 2.43946,-0.39062 1.30078,-0.13867 2.65039,-0.25 1.41992,-0.0703 5.78906,-0.0508 3.66993,0.22071 1.74023,0.24023 3.43945,0.57031 1.64063,0.41992 3.23047,0.93946 1.54883,0.59961 3.04101,1.30078 1.45899,0.78906 2.88085,1.67969 1.39063,0.99023 2.75,2.06055 1.33008,1.17969 2.6289,2.4707 1.2793,1.37891 2.98047,3.52148 1.80078,2.42969 0.81055,1.25 2.98828,5.09961 1.12109,2.65039 1.99024,5.35937 0.60937,2.71094 0.99024,5.43945 0.10937,2.68946 -0.0293,5.35937 -0.39062,2.60156 -0.45899,2.58008 -0.33007,1.25977 -0.71094,2.49023 -0.45899,1.20899 -0.9707,2.39062 -0.58008,1.15039 -1.23046,2.25977 -0.70899,1.08008 -1.49023,2.11914 -0.83985,1 -1.74023,1.95117 -0.9707,0.9082 -1.97852,1.72071 -1.23047,0.96093 -0.53125,0.35938 -1,0.63086 -0.35937,0.1582 -0.64063,0.21094 -0.12891,-0.0899 -0.39062,-0.52929 -0.21875,-0.5918 -0.10156,-0.38867 -0.29883,-1.76953 v -1.02149 l -0.37109,-3.29883 -0.58985,-2.17968 -0.43945,-1.07032 -0.99024,-2.11132 -0.6289,-1.00977 -1.33008,-1.98047 -0.79102,-0.91992 -1.6289,-1.79883 -0.92188,-0.80078 -1.88867,-1.53906 -1.01953,-0.66016 -2.0918,-1.24023 -1.09961,-0.48047 -2.25,-0.86914 -1.16015,-0.28125 -4.17969,-0.58008 -2.95899,0.0312 -1.6914,0.25 -1.72852,0.2793 -0.93164,0.21093 -1.91992,0.43946 -1.04883,0.28906 -2.16015,0.61133 -1.17969,0.37891 -2.44141,0.78124 -1.34961,0.45899 -5.36914,1.41016 -3.40039,0.41992 -1.66992,-0.0605 -3.33008,-0.28906 -1.68945,-0.41016 -3.41992,-1 -1.81055,-0.76953 -2.92969,-1.24023 -1.58984,-0.65039 -0.65039,-0.24024 -1.21094,-0.42969 -0.5,-0.14062 -0.91992,-0.20899 -0.37891,-0.0293 -1.37109,0.0781 -0.61914,0.3418 -1.25,0.85937 -0.83008,0.70899 -1.59961,1.74023 -1.24023,1.70117 -0.68946,1.04883 -1.40039,2.25 -0.73047,1.27149 -1.48046,2.63867 -0.74024,1.41992 -2.93945,5.87109 -1.26953,2.92969 -1.23047,2.91016 -0.5293,1.36914 -0.98047,2.68945 -0.36914,1.21094 -0.98047,3.16016 -0.58984,1.92968 -0.25977,0.91993 -0.98047,3.58007 -0.39062,1.91016 -0.36914,1.94922 -0.16016,1.06055 -0.31054,2.21093 -0.14063,1.24024 -0.25,2.58984 -0.10937,1.47852 -0.20899,3.10156 -0.0898,1.7793 -0.16016,3.73046 -0.0703,2.14844 -0.13086,4.49024 -0.0488,2.57031 -0.10156,5.37109 -0.0488,3.0586 -0.041,3.13086 -0.01,1.66015 -0.0391,3.40039 -0.01,1.8086 -0.041,3.68164 -0.01,1.95898 -0.0293,3.98047 -0.01,2.11914 -0.0312,4.31055 -0.01,2.26953 -0.0195,4.65039 -0.01,2.44922 -0.0215,4.99023 -0.01,2.63086 -0.0293,5.35938 -0.01,2.82031 -0.0195,5.74023 -0.0117,3.01954 -0.0293,6.14062 -0.01,3.21875 -0.0605,19.27148 -0.0195,12.32032 v 5.79883 5.74023 l 0.01,2.75977 v 5.45117 l 0.01,2.59961 0.01,5.1289 0.0117,2.42969 0.0195,4.78125 0.01,2.24023 0.0195,4.38868 0.0195,2.03125 0.0312,3.96875 0.01,1.81054 0.0391,3.50977 0.0215,1.57031 0.0391,3.01953 0.0195,1.32032 0.041,2.5 0.0195,1.04101 0.0508,1.93945 0.0293,0.75 0.0508,1.34961 0.0293,0.43946 0.0605,0.7207 0.0293,0.11914 0.51953,1.57031 0.41992,0.81055 0.25977,0.30078 0.54101,0.5293 0.33008,0.16992 0.68946,0.26953 0.41992,0.0703 1.45117,-0.28906 1.20898,-0.61133 0.68946,-0.5 1.45117,-1.08984 0.7793,-0.69922 1.58984,-1.48047 0.82031,-0.85937 3.32031,-3.71094 1.54883,-2.08984 2.97071,-4.26954 1.10937,-2.09961 1,-1.9414 0.55078,-1.10938 0.2207,-0.48046 0.72852,-1.78907 0.18164,-0.75976 0.23828,-1.47071 -0.0195,-0.77929 -0.13867,-1.63086 -0.18164,-1.03907 -0.29883,-2.35156 -0.17969,-1.92968 -0.0703,-1.04883 -0.2207,-4.39063 V 552.5 l 0.16992,-4.16992 0.36133,-2.39063 0.41992,-1.33007 0.45898,-1.36915 0.31055,-0.79101 0.67969,-1.62891 0.42969,-0.96093 0.91992,-2.0293 0.57031,-1.19922 1.21094,-2.54102 0.71875,-1.50976 7.57031,-15.15039 5.33008,-10.16992 2.78906,-5.08985 5.66992,-10.19922 2.94141,-5.08008 5.95898,-10.15039 3.08008,-5.04101 6.21094,-10.0293 3.17969,-4.95898 6.41992,-9.85156 3.26953,-4.83008 6.58008,-9.58985 3.33984,-4.67968 6.70117,-9.26954 3.37891,-4.49023 8.54101,-11.17969 5.51954,-7.05078 2.73046,-3.38867 10.83985,-13.23047 5.66015,-6.49023 5.72852,-6.50977 3.01172,-3.31055 6.09961,-6.67968 3.25,-3.46094 6.63867,-7.0293 3.57031,-3.69922 3.6211,-3.74023 1.8789,-1.92969 3.81055,-3.90039 1.99023,-2.01953 4.76954,-4.86133 3.04101,-3.11914 1.41992,-1.4707 2.76953,-2.87891 1.25977,-1.33008 2.43945,-2.57031 1.08008,-1.15039 2.05078,-2.19922 0.85938,-0.93164 1.58984,-1.75 0.61133,-0.68945 1.06836,-1.23047 0.32031,-0.39844 L 489,305.15039 v -0.0898 l -0.16016,-0.73047 -0.25976,-0.94922 -0.19922,-0.70117 -0.45117,-1.53907 -0.29883,-0.9707 -0.63086,-2.08008 -0.38086,-1.23046 -0.78906,-2.57032 -0.46094,-1.46875 -0.94922,-3.03125 -0.5293,-1.67968 -1.08007,-3.45899 -0.59961,-1.87109 -1.21094,-3.83008 -0.65039,-2.04883 -1.33008,-4.16992 -0.69922,-2.20117 -1.42969,-4.46875 -0.75,-2.33008 -3.07031,-9.57031 -1.63086,-5.07032 -3.32031,-10.30078 -1.71875,-5.31836 -3.4707,-10.7207 -1.75977,-5.40039 -3.50976,-10.78906 -1.73047,-5.32032 -3.44922,-10.56054 -1.66016,-5.08008 -3.28125,-9.99023 -1.52929,-4.66016 -1.51954,-4.60938 -0.73046,-2.19922 -1.42969,-4.33984 -0.67969,-2.05078 -1.33008,-4.00977 -0.63086,-1.88085 -1.21875,-3.66016 -0.56054,-1.67969 -1.09961,-3.26953 -0.49024,-1.4707 -0.96093,-2.81836 -0.41993,-1.24024 -0.80859,-2.33984 -0.3418,-0.98047 -0.63867,-1.83008 -0.25,-0.71093 -0.46094,-1.25977 -0.16015,-0.41016 -0.26953,-0.66992 -0.0605,-0.0898 -1.39844,-1.92969 -1.27148,-1.5 -0.76953,-0.83008 -1.61915,-1.69922 -0.91015,-0.90039 -1.88086,-1.81054 -1,-0.92969 -4.17969,-3.71094 -2.11914,-1.70898 -2.11133,-1.66016 -1.01953,-0.75977 -2.00976,-1.43945 -0.92969,-0.62109 -6.80078,-4.08985 -5.14063,-2.76953 -2.79883,-1.38086 -5.75,-2.740231 -3.04101,-1.339844 -6.16992,-2.638672 -3.17969,-1.259765 -6.41016,-2.460938 -3.22851,-1.150391 -6.45117,-2.208984 -3.16993,-0.990234 -6.31054,-1.890625 -3.0293,-0.798828 -5.96094,-1.490235 -2.78906,-0.560547 -9.99414,-1.8125 -0.60547,-0.117187 -2.34961,-0.441407 -1.21094,-0.208984 -10.75,-1.580078 -7.30078,-0.820312 -3.69922,-0.310547 -7.43945,-0.519532 -3.75977,-0.15039 -7.52148,-0.228516 z m -30.25,169.349607 v 0.0391 l 0.041,-0.20899 z m -1.41016,15.07031 0.01,0.0801 v -0.24023 z m -51.63867,61.88868 0.0488,-0.0488 0.0508,-0.0606 z m -36.43164,13.88086 0.0508,0.55078 -0.0195,-1.44141 z m 60.56055,-233.93946 1.25976,0.16992 0.79102,0.17969 1.67969,0.41016 0.95898,0.28906 1.9707,0.62109 1.06055,0.37891 4.37891,1.64063 2.16015,0.9707 2.13086,0.96875 0.99024,0.50977 1.92968,1 0.83985,0.5 4.40039,2.95117 2.79883,2.22851 1.33008,1.22071 2.60156,2.54101 1.21875,1.35938 2.35937,2.78906 1.0918,1.48047 2.08984,3.00976 0.93946,1.57032 1.78906,3.16992 0.78125,1.64062 1.45898,3.29883 0.58985,1.68164 1.08984,3.36914 0.39063,1.69922 0.70117,4.5 0.21875,3.33008 v 1.78125 l -0.0899,3.60937 -0.14062,1.85938 -0.36914,3.75 -0.2793,1.87109 -0.63086,3.71875 -0.40039,1.81055 -0.85937,3.54101 -0.51954,1.66016 -1.07031,3.20899 -0.60937,1.42968 -1.26172,2.73047 -0.69922,1.13086 -0.91992,1.34961 -0.56055,0.66016 -0.25,0.20898 -0.48047,0.33008 -0.20898,0.0508 -0.39063,0.01 -0.16992,-0.1211 -0.32031,-0.30859 -0.11914,-0.26953 -0.24024,-0.63086 -0.0801,-0.43946 -0.15039,-0.95117 -0.0488,-0.58984 L 258,181.83008 v -0.75977 l -0.25,-5.12109 -0.41992,-3.64844 -0.31055,-1.91992 -0.70898,-3.87109 -0.45117,-1.99024 -0.97852,-3.99023 -0.57031,-1.99024 -2.52149,-7.97851 -1.53906,-3.75 -1.58008,-3.67969 -0.83984,-1.73047 -1.7207,-3.37109 -0.91016,-1.5293 -1.38867,-2.36914 -0.75,-1.26172 -0.30078,-0.48828 -0.53907,-0.89063 -0.21093,-0.33007 -0.37891,-0.58008 -0.14063,-0.17969 -0.4707,-0.50977 -0.13867,0.01 -0.27148,0.16016 -0.17969,0.16992 -0.0195,0.87891 0.18945,1.16015 0.17969,0.80078 0.41015,1.74024 0.28125,1.01953 0.58985,2.11914 0.34961,1.14062 0.95898,3.24024 0.54102,1.92969 0.19922,0.77929 0.35156,1.42188 0.0996,0.45898 0.11914,0.74024 -0.0488,0.0391 -0.41016,0.0117 -0.52148,-0.1211 -0.35938,-0.0996 -1.66015,-0.56054 -0.99024,-0.41992 -3.52929,-1.04883 -1.24024,-0.24024 -0.58008,-0.0703 -1.10937,-0.11133 -0.45117,0.0117 -3.2793,0.0391 3.5,2.71094 1.75,1.41016 1.40039,1.17968 0.75977,0.66993 3.15039,2.76953 1.34961,1.26953 1.50976,1.43945 0.83985,0.8418 0.33984,0.37891 1.16992,1.41015 0.36133,0.67969 0.59961,1.41016 0.16015,0.88085 0.2793,1.89844 0.10938,1.31055 0.4707,5.65039 -3.38086,-1.36914 -3.61914,-1.23047 -2.41992,-0.61133 -1.08008,-0.17968 -2.01953,-0.25977 -0.73047,0.0312 -0.66016,0.0488 -0.23046,0.0605 -0.39844,0.16993 -0.0801,0.1289 0.31836,0.71094 0.6914,0.81055 0.53907,0.51953 1.2207,1.11914 0.75,0.63086 1.59961,1.31054 0.90039,0.67969 5.03906,4.26953 1.34961,1.34961 0.5,0.57032 0.86133,1.07031 0.19922,0.36914 0.96094,2.81055 0.35937,2.16992 0.0293,1.12109 -0.0293,2.20899 -0.16015,0.99023 -0.42969,1.88086 -0.36914,0.68945 -0.72071,1.16992 -0.43945,0.28907 -0.9707,0.38086 -0.67969,-0.14063 -0.73047,-0.18945 -0.43945,-0.17969 -0.91992,-0.41992 -0.55078,-0.30078 -1.16993,-0.65039 -0.67968,-0.41992 -1.44922,-0.89844 -0.8418,-0.55078 -5.05859,-3.81055 -3.16993,-2.91992 -1.4414,-1.60938 -2.76953,-3.29101 -1.18946,-1.74024 -2.25,-3.53906 -0.88085,-1.80078 -1.74024,-3.93945 -0.93945,-2.60938 -0.36914,-1.33008 -0.66016,-2.67969 -0.23047,-1.39062 -0.40039,-2.83008 -0.0898,-1.50976 -0.12891,-3.07032 0.0293,-1.66015 0.13086,-3.40039 0.16992,-1.84961 0.37891,-3.81055 0.29101,-2.08984 0.63867,-4.29883 0.41016,-2.37109 0.92969,-6.08985 0.4414,-3.66992 0.12891,-1.70899 0.30078,-6.61132 -0.16992,-3.35938 -0.11133,-2.51953 -0.0391,-1.45117 -0.01,-0.61914 0.01,-2.19922 0.0703,-0.75 0.17969,-1.28125 0.16992,-0.36914 0.39062,-0.57031 0.26954,-0.10938 z m 120.33008,0.11914 0.21093,0.0195 0.006,0.002 0.39258,0.10937 0.18164,0.17969 0.28906,0.65039 0.0899,0.66016 -0.01,0.41992 -0.20898,1.9082 -0.33008,1.18164 -0.37109,1.87891 -0.16016,1.49023 -0.0293,0.8711 -0.0508,1.80859 0.01,0.80078 0.01,-0.12109 -0.0781,1.25 0.0488,0.91016 0.0605,0.9707 0.0488,0.58008 0.11133,1.2207 0.0703,0.70898 1.03906,5.85938 -1.00976,-5.67969 0.0293,0.29102 0.13085,1.33984 0.28907,2.75977 0.1914,1.5 0.39844,3.08007 0.24024,1.65039 0.52148,3.38868 0.29883,1.81054 0.60937,4.56055 0.31055,3.24023 0.0996,1.64844 0.16992,3.32032 0.0215,1.63085 v 3.20899 l -0.0605,1.5 -0.14063,3.02148 -0.10937,1.72852 -0.0703,0.75 -0.32032,2.76172 -0.28906,1.18945 -0.66992,2.32031 -0.53125,1.26953 -0.5586,1.29883 -0.33984,0.74024 -0.73047,1.52148 -0.43945,0.86914 -1.71094,3.32031 -1.11914,2 -0.57031,0.91016 -2.05664,3.08789 -2.19336,2.0918 -1.17969,1.08984 -2.32031,2.13086 -1.07031,0.93945 -2.04102,1.7793 -0.83008,0.67969 -0.79883,0.64062 0.0293,-0.0293 -0.17969,0.11914 -2.10937,1.33984 -0.89063,0.50977 -1.69922,0.9414 -0.70117,0.29883 -1.26953,0.49024 0.83008,-0.25977 -0.90039,0.28906 h -0.004 l -0.51562,0.0801 -0.56836,0.0469 -0.51172,-0.006 -0.25781,-0.0859 -0.0117,-0.004 -0.041,-0.0195 -0.006,-0.004 -0.18359,-0.10743 0.0801,0.0606 -0.64063,-0.42969 -0.24023,-0.38086 -0.41992,-0.84961 -0.13868,-0.59961 -0.24023,-1.30078 -0.0606,-0.83007 -0.09,-1.76937 v -1.06054 l 0.01,-2.00977 0.041,-1.10937 0.0293,-0.47071 0.20898,-1.66015 0.24024,-0.62891 0.60156,-1.17969 0.51953,-0.58008 1.19922,-1.2207 -0.25,0.25977 2.15039,-1.81055 4.24023,-3.54883 1.36915,-1.14062 0.60156,-0.5 1.1289,-0.93946 0.41016,-0.33984 1.25977,-1.14062 0.58984,-0.65039 0.16992,-0.26954 0.25,-0.49023 v -0.17969 l -0.0801,-0.33984 -0.16015,-0.10938 -0.41016,-0.16992 -0.31836,-0.0215 -0.73047,-0.01 -0.48047,0.0606 -1.05078,0.16015 -0.63867,0.14063 -1.34961,0.33008 -0.80078,0.22851 -4.15039,1.19141 -1.16016,0.33008 -0.17968,0.0488 -0.25977,0.0703 -0.46094,0.13086 -0.32812,0.0898 -0.21094,0.0488 -0.73047,-0.0195 -0.33984,-0.30078 -0.0899,-0.33985 -0.16015,-0.80859 -0.0293,-0.63086 -0.01,-1.42969 0.0391,-0.98047 0.53125,-3.99023 0.81836,-2.26953 0.75,-1.07031 0.80078,-1.08008 0.5,-0.54883 1.08008,-1.11133 0.65039,-0.58984 1.38867,-1.19922 0.82031,-0.65039 1.73047,-1.33985 1,-0.74023 2.38086,-1.81055 1.39844,-1.10937 0.56054,-0.48047 1.00977,-0.88867 0.32031,-0.31055 0.5,-0.55078 0.01,-0.0996 -0.65039,-0.59961 -1.08985,-0.12109 -0.77929,0.0703 -1.71094,0.23047 -1,0.23047 -2.06836,0.54883 -1.0918,0.39062 -2.93945,0.84961 -0.75,0.14062 -0.25977,0.01 h -0.42968 l -0.0606,-0.0703 -0.0195,-0.7793 0.16015,-1.03125 0.16016,-0.71875 0.35938,-1.56055 0.23046,-0.91015 0.51954,-1.91016 0.30078,-1.01953 0.97851,-3.42969 0.49024,-1.83008 0.16992,-0.70117 0.27148,-1.25 0.0488,-0.41992 0.0508,-0.67969 -0.0703,-0.13867 -0.18945,-0.14062 -0.19141,0.1289 -0.42969,0.39063 -0.30859,0.40039 -0.69141,0.91015 -0.42968,0.65039 -0.94922,1.41016 -0.57032,0.88867 -2.80078,4.80078 -1.74023,3.39063 -0.78906,1.76953 -1.5293,3.58984 -0.69141,1.84961 -1.30859,3.72071 -0.57031,1.88867 -1.07032,3.79101 -0.43945,1.89063 -0.82031,3.78906 -0.30078,1.86914 -0.53907,3.73047 -0.15039,1.81055 L 307,177.16992 v 1.73047 l -0.0703,2.75977 -0.11914,1.65039 -0.0801,0.68945 -0.17969,1.25977 -0.11133,0.41992 -0.22851,0.68945 -0.13086,0.0801 -0.60938,0.0703 -0.48047,-0.20898 -0.27929,-0.21094 -0.56055,-0.5 -0.31055,-0.34961 -0.61914,-0.75977 -0.33008,-0.4707 -1.33007,-2.08984 -0.66016,-1.31055 -1.31055,-2.7793 -0.58007,-1.55078 -2.57032,-8.82812 -0.87304,-5.15039 -0.13672,-1.44141 -0.12891,-1.92969 0.13867,2.6211 -0.16015,-2.92969 -0.0586,-4.32031 0.0391,-1.8711 0.14062,-1.46875 -0.20117,1.83985 0.30078,-2.84961 -0.0508,0.52929 0.0644,-0.625 0.60352,-4.16015 0.60351,-2.875 -0.40039,1.4707 0.7168,-2.64258 0.0527,-0.18164 1.25196,-3.99218 0.3789,-0.98438 1.24024,-2.98047 2.47851,-4.93945 -1.54883,3.08984 1.29883,-2.4707 0.86133,-1.37891 1.62305,-2.48242 0.006,-0.008 0.58984,-0.80078 0.55078,-0.71875 2.03907,-2.55078 1.12109,-1.20899 1.85547,-1.92383 0.75195,-0.73047 0.93164,-0.82617 2.54102,-2.16992 1.36914,-1.00977 0.5957,-0.41601 0.0644,-0.0449 2.80078,-1.90039 2.89844,-1.71875 1.5,-0.78125 -0.4082,0.2207 1.43945,-0.69922 6.65039,-2.91992 1.95899,-0.75977 2.26953,-0.75195 1.32031,-0.34961 2.55078,-0.59961 1.09961,-0.14062 z m -20.47071,6.97071 -1.94922,1.16015 2.76954,-1.58008 z M 180.13086,169.5 h 1.41992 l 3.91016,0.01 2.1582,0.0293 0.90039,0.0312 1.69141,0.0703 0.71875,0.0586 1.35937,0.15039 0.60156,0.11133 2.25,0.53906 1.14844,0.48047 1.18164,0.51953 0.66992,0.32031 1.38868,0.68946 0.82031,0.41015 4.54101,2.66016 2.95899,2.08008 1.41992,1.16992 2.81055,2.41992 1.33008,1.32031 2.61914,2.71875 1.2207,1.45117 2.36914,2.94922 1.08008,1.55078 2.08984,3.14063 0.92188,1.61914 1.75,3.25977 0.73828,1.66015 1.37109,3.33008 0.5293,1.67969 1.06055,4.16015 0.28906,1.56055 0.12109,0.86914 0.24024,1.81055 0.10937,1.0293 0.19922,2.15039 0.10156,1.23046 0.16992,2.58008 0.0898,1.48047 0.16015,3.09961 0.0801,1.7793 0.14844,3.71093 0.0801,2.10938 0.24023,8.2207 0.0508,2.5 0.01,1.14844 0.0195,2.23047 v 0.99023 l -0.01,1.89063 -0.01,0.80859 -0.0391,1.5 -0.0312,0.5918 -0.0606,1.04883 -0.0391,0.33984 -0.0899,0.55078 -0.0508,0.0606 -0.57031,0.28906 -0.5,0.01 -0.30859,-0.0703 -1.38086,-0.50977 -0.85938,-0.53906 -1.83008,-1.23047 -1.00976,-0.83008 -2.09961,-1.78906 -1.08008,-1.04102 -2.1914,-2.16992 -1.0586,-1.16992 -2.10156,-2.39063 -0.95899,-1.21875 -1.83984,-2.43164 -0.76953,-1.16992 -1.40039,-2.31836 L 210.5,235.75 l -0.55078,-1.28906 -0.39844,-1.05078 -0.23047,-0.59961 -0.92969,-2.63086 -0.49023,-1.51953 -2.05078,-6.5 L 205,219 l -2.32031,-7.86914 -1.59961,-4.66016 -0.83008,-2.06054 -1.68945,-3.93946 -0.89063,-1.71093 -1.82031,-3.25977 -0.95899,-1.38086 -1.96093,-2.60937 -1.04883,-1.07032 -2.14063,-2.00976 -1.15039,-0.78907 -2.34961,-1.4414 -1.25976,-0.51953 -2.58985,-0.91992 -1.39062,-0.26954 -3.5,-0.70117 4.2207,2.8711 3.72852,3.03906 1.1914,1.15039 0.51954,0.56055 0.9707,1.08007 0.34961,0.48047 1.04883,1.62891 0.75,1.33008 0.38086,0.74023 1.52929,3.15039 0.65039,1.57031 0.6211,1.54883 0.25976,0.71094 0.46875,1.36914 0.16993,0.57031 0.27148,1.06055 0.0391,0.36914 0.0293,0.62109 -0.10938,0.0996 -0.40039,0.0293 -0.45898,-0.13867 -0.30078,-0.13086 -1.34961,-0.71094 -0.76953,-0.53906 -2.95117,-1.67969 -2.2793,-1.00976 -1.11914,-0.40039 -2.21094,-0.68946 -0.90039,-0.16992 -0.85938,-0.14062 -0.34961,-0.01 -0.63085,0.01 -0.22071,0.0801 -0.0996,0.40039 0.29102,0.46876 0.30859,0.32031 0.70117,0.68945 0.49024,0.39063 1.03906,0.82031 0.63086,0.42969 5.57031,4.66015 3.36914,3.60938 1.3711,1.87109 1.31836,1.86914 0.55078,0.91992 1.03906,1.81055 0.39063,0.85938 0.71093,1.6914 0.20899,0.76953 0.32031,1.49024 v 0.65039 l -0.0801,1.29883 -0.25,0.48046 -0.33984,0.0703 -0.88086,0.0293 -0.8086,-0.11914 -0.87109,-0.15039 -0.54883,-0.0996 -1.18164,-0.23047 -0.71875,-0.14062 -4.08008,-0.37891 h -1.43945 l -0.66992,0.0391 -1.29102,0.0996 -0.51953,0.0898 -3.82031,0.65039 5,1.71094 6.34961,2.55859 3.61133,1.89063 1.5,1.04101 2.78906,2.12891 1.08984,1.16015 1.97071,2.39063 0.68945,1.2793 2.13086,3.84961 0.64844,1.11132 0.28125,0.44922 0.5,0.80078 0.16015,0.22852 0.71875,1.33984 0.15039,0.70117 -0.1289,0.12891 -0.81055,0.0312 -1.09961,-0.13086 -0.77148,-0.12891 -1.66016,-0.30078 -0.97852,-0.20898 -2.04101,-0.44141 -1.09961,-0.25976 -3.25977,-0.74024 -2.05078,-0.43945 -0.90039,-0.16992 -1.68945,-0.32031 -0.62891,-0.0996 -1.11132,-0.15039 h -0.25977 l -1.0293,0.041 -0.34961,0.0996 -0.01,0.12891 0.0898,0.30078 0.19922,0.26953 0.51953,0.61133 0.41016,0.45898 1.45117,1.24024 1.36914,0.92968 0.83984,0.5 1.80078,1.00977 1.01954,0.51953 2.10937,1.05078 1.14063,0.51953 4.73046,2.06055 2.42969,0.89062 4.82031,1.66016 2.13868,0.53906 5.57031,1.64063 1.54101,0.55859 0.66993,0.28125 1.27929,0.56055 0.54102,0.2793 1,0.55078 0.39844,0.27929 0.71093,0.53907 0.24024,0.27148 0.41015,0.51953 0.0801,0.25977 0.0899,0.5 -0.0801,0.23047 -0.33008,0.41992 -0.41992,0.16992 -0.98047,0.31055 -0.68945,0.10937 -1.49024,0.19922 -0.89062,0.0606 -1.84961,0.0996 -1.00977,0.01 -4.24023,-0.0898 -2.09961,-0.19922 -2.08985,-0.24023 L 208.67969,267 206.81055,266.66016 206,266.43945 l -5.44922,-1.71875 -3.53125,-1.39062 -1.68945,-0.80078 -3.33008,-1.66016 -1.58008,-0.92969 -3.08984,-1.91015 -1.43946,-1.03907 -2.81054,-2.12109 -1.26953,-1.12891 -2.46094,-2.30078 -1.08984,-1.19922 -2.08008,-2.42968 -0.86914,-1.25977 -1.64063,-2.54101 -0.63086,-1.29883 -1.67968,-3.74024 -0.74024,-2.2207 -0.22852,-1.30078 -0.2207,-1.33984 -0.0801,-0.7793 -0.15039,-1.63086 -0.0586,-0.95899 -0.11133,-2.04101 -0.0488,-1.20899 -0.10156,-2.56054 -0.0391,-1.50977 -0.2207,-5.2793 -0.17969,-3.08007 -0.11914,-1.33985 -0.25,-2.56054 -0.16016,-1.1211 -0.33984,-2.1289 -0.21094,-0.91993 -0.44922,-1.77929 -0.26953,-0.78125 -0.57031,-1.49024 -0.33985,-0.66992 -1.5,-2.50976 -1.00976,-1.15039 -3,-2.83008 -2.08008,-1.33985 -1.14063,-0.42968 -2.38085,-0.69922 -1.34961,-0.13086 -2.84961,-0.10938 -1.66993,0.14063 -2.17968,0.11914 -1.16993,-0.01 -0.45117,-0.0605 -0.80859,-0.16993 -0.26172,-0.15039 -0.44922,-0.35937 -0.0996,-0.25977 -0.0996,-0.57031 0.0684,-0.39062 0.23047,-0.83008 0.23047,-0.51953 0.55078,-1.11915 0.38867,-0.67968 0.84961,-1.43164 0.54102,-0.84961 2.9707,-4.01953 2.21875,-2.35938 1.30078,-1.06055 2.70899,-2.07031 1.60156,-0.9707 3.37891,-1.91016 1.99023,-0.94922 2.08984,-0.9707 1.23047,-0.5293 0.57031,-0.2207 2.18946,-0.71875 1.23047,-0.20117 1.25976,-0.17969 0.71875,-0.0586 1.52149,-0.11133 0.90039,-0.0293 1.88867,-0.0508 1.13086,-0.01 z m 201.88867,0 h 1.46094 l 3.68945,0.0195 2.08008,0.0312 0.89062,0.0293 1.66993,0.0703 0.71875,0.0488 1.37109,0.13086 0.59961,0.0898 2.24023,0.44922 1.04883,0.36133 2.13086,0.83984 1.30078,0.60938 3.31836,1.78125 2.19141,1.3789 1.04883,0.76954 4.08984,3.24023 1.74024,1.76953 1.67968,1.79102 0.74024,0.90039 1.39062,1.78906 0.56055,0.88086 1.03906,1.75 0.37109,0.83008 0.61915,1.61914 0.14062,0.75 0.0195,1.01953 -0.2793,0.43164 -0.36132,0.11914 -0.89844,0.16992 -0.76172,0.01 h -0.81836 l -0.5,-0.01 -1.07031,-0.0391 -0.64063,-0.0215 h -2.78906 l -1.66992,0.13085 -0.77148,0.14063 -2.89844,0.75 -1.3711,0.69922 -2.75,1.55078 -1.53906,1.06836 -0.64062,0.60156 -1.19922,1.25 -0.49024,0.72852 -0.90039,1.55078 -0.37109,0.93945 -0.66016,1.99024 -0.26953,1.21093 -0.46875,2.5586 -0.1914,1.53125 -0.33985,3.25976 -0.12891,1.93946 -0.25976,4.08984 -0.11133,2.40039 -0.33984,6.08008 -0.2793,3.4707 -0.17969,1.5 -0.40039,2.85938 -0.26953,1.25 -0.57031,2.3789 -0.37109,1.07032 -0.79883,2.06054 -0.5,0.96094 -1.08008,1.89844 -0.66016,0.9414 -1.41015,1.86914 -0.83985,0.99024 -1.79101,2.00976 -1.0586,1.10938 -5.40039,4.76172 -4.12109,2.85937 -2.26953,1.24024 -4.65039,2.34961 -2.45899,0.94922 -5,1.73046 -2.57031,0.59961 -3.82031,0.78125 -1.95899,0.25 -3.89062,0.38868 -1.76953,0.0508 -1.74024,0.0293 -0.78125,-0.0293 -1.51953,-0.0703 -0.66015,-0.0801 -1.22852,-0.17969 -0.48047,-0.13086 -0.87109,-0.28906 -0.2793,-0.17969 -0.67969,-0.58008 -0.16015,-0.38086 0.0703,-0.20898 0.25,-0.45117 0.28906,-0.2793 0.70117,-0.63086 0.5293,-0.41016 1.36914,-0.84961 1.18164,-0.58984 0.67969,-0.2793 2.88867,-1.08008 1.38086,-0.33007 6.76953,-1.89063 4.51953,-1.53906 2.16016,-0.86133 4.21094,-1.76953 1.86914,-0.91992 3.56054,-1.85938 1.41016,-0.91992 1.50977,-1.00977 0.83007,-0.57031 0.33985,-0.24023 1.09961,-0.85938 0.25,-0.29101 0.30078,-0.49024 -0.11914,-0.15039 -0.40039,-0.25 -0.44141,-0.0684 -1.43945,0.0293 -1.45899,0.17969 -0.90039,0.15039 -1.90039,0.33984 -1.03906,0.2207 -2.12109,0.47852 -1.08008,0.27148 -3.08985,0.74024 -1.86914,0.38867 -0.78125,0.14063 -1.42968,0.23046 -0.49024,0.0488 -0.80859,0.0312 -0.11133,-0.0605 -0.0488,-0.57032 0.19922,-0.70898 0.21094,-0.49024 0.46875,-1.05078 0.31054,-0.61914 0.66993,-1.28125 0.39062,-0.68945 1.68945,-2.84961 0.90039,-1.33984 0.89844,-1.32032 0.44141,-0.58007 0.85937,-1.09961 0.39063,-0.44141 0.93945,-0.80859 0.92969,-0.65039 0.58984,-0.35938 1.25977,-0.75 0.7207,-0.41016 1.50977,-0.82031 0.83008,-0.41992 3.43945,-1.70117 1.80078,-0.79883 3.60938,-1.53125 1.64062,-0.59961 1.05078,-0.41992 0.31836,-0.21875 -0.0293,-0.12109 -0.19922,-0.23047 -0.30078,-0.13868 -0.75,-0.33007 -0.58984,-0.22071 -1.82031,-0.4707 -1.41992,-0.0996 -0.91993,0.0606 -2.00976,0.19922 -1.34961,0.21093 -1.41016,0.24024 -0.81054,0.15039 -1.68946,0.31836 -0.9707,0.20117 -1.62891,0.25977 -0.64062,-0.041 -0.15039,-0.16992 -0.16992,-0.47852 0.041,-0.46093 0.16016,-1.08008 0.1582,-0.82031 0.61133,-2.07032 0.62891,-1.47851 0.41015,-0.78125 1.88086,-3.18946 1.23047,-1.61914 2.63867,-3.24023 1.50977,-1.5 3.12109,-2.90039 1.65039,-1.19922 2.3086,-1.71094 1.35156,-1.0293 0.53906,-0.42968 0.98047,-0.79102 0.29883,-0.26953 L 386,202.2207 v -0.0605 l -0.34961,-0.24024 -0.56055,-0.0195 -0.40039,0.0488 -0.88867,0.14062 -0.54101,0.13086 -1.11915,0.2793 -0.62109,0.17969 -2.58984,0.83008 -1.26953,0.50976 -2.48047,1.06055 -0.92969,0.53906 -2.33008,1.30078 -1,0.4707 -0.2793,0.0391 -0.4414,-0.0488 -0.0898,-0.21094 L 370,206.64062 v -0.4414 l 0.28906,-1.84961 0.45117,-1.45899 0.33985,-0.81054 1.64062,-3.43946 1.09961,-1.79101 2.35938,-3.54883 1.26953,-1.54101 1.28125,-1.48047 0.62891,-0.62891 1.25,-1.17969 0.58984,-0.43164 1.81055,-1.36914 1.04101,-0.82031 0.39844,-0.33984 0.7207,-0.61915 0.21094,-0.20117 0.29883,-0.33984 -0.0293,-0.0391 -0.7207,-0.20117 -0.74024,0.0703 -0.46875,0.13086 -1,0.30859 -0.58008,0.24024 -1.1914,0.52148 -0.63867,0.31836 -2.65039,1.43164 -1.29102,0.86914 -2.5293,1.81055 -1,0.92968 -4.1289,4.67969 -1.22071,1.79102 -0.58007,0.97851 -1.13086,2.03125 -0.5293,1.11914 -1.07031,2.33008 -0.50977,1.30078 -1.0293,2.67969 -0.5,1.49023 -1.00976,3.08985 -0.51172,1.70898 -1.00976,3.55078 -0.51954,1.95899 -1.35937,4.98047 -0.83008,2.89062 -0.39062,1.25977 -0.7793,2.41015 -0.38086,1.07032 -0.76953,2.02929 -0.40039,0.91993 -1.61914,3.41015 -0.97071,1.54102 -2.08007,3.04883 -1.33008,1.66992 -3.90039,4.23047 -2.91016,2.6289 -1.38867,1.05078 -1.38086,1 -0.62891,0.41016 -1.2207,0.75 -0.5293,0.25977 -1,0.42968 -0.39062,0.0801 -0.69922,0.0606 -0.20117,-0.11914 -0.20899,-0.53125 -0.11132,-0.71875 -0.0488,-0.52149 -0.0801,-1.15039 -0.0312,-0.70898 -0.0488,-1.51953 -0.0195,-0.88086 -0.041,-3.79883 0.0195,-2.24024 0.0605,-4.65039 0.0606,-2.48046 0.0488,-1.55469 0.12109,-0.38477 0.11914,-0.74023 0.21094,-1.59961 0.0586,-0.91016 0.0801,-1.87109 -0.0195,-0.96875 -0.0488,-1.96094 -0.0801,-0.92969 -0.18164,-1.82031 0.13086,1.25 0.041,-0.92969 0.13867,-2.25976 0.28125,-4.35938 0.16992,-1.80078 0.16016,-1.73047 0.0898,-0.74023 0.16992,-1.31836 0.0488,-0.14063 v -0.17968 l 0.0508,-0.31055 1.37891,-5.4707 1.38086,-3.71875 0.89062,-1.84961 1.91016,-3.70117 1.11914,-1.82032 2.36914,-3.58984 1.33008,-1.71875 2.75,-3.38086 1.49023,-1.58008 3.05078,-3.07031 1.60938,-1.38867 3.26953,-2.66016 1.70117,-1.14062 3.41992,-2.15039 1.74024,-0.84961 2.2793,-1.09961 1.31054,-0.58985 0.58985,-0.24023 2.25976,-0.79102 1.23047,-0.21875 1.25977,-0.20117 0.7207,-0.0586 1.51953,-0.11133 0.90039,-0.0293 1.89844,-0.0508 1.15039,-0.01 z m -242.15039,81.55078 5.44141,0.01 2.61914,0.29883 2.58008,0.36132 1.2207,0.25977 2.38867,0.55859 1.08008,0.36133 4.04101,1.45899 2.17969,0.91992 0.83985,0.41992 1.5,0.83008 0.5,0.38086 0.81054,0.7207 0.15039,0.30859 0.10938,0.59961 -0.19922,0.25 -0.5918,0.47071 -0.55859,0.16992 -1.30078,0.31054 -0.91992,0.0996 -2.01954,0.14063 h -1.27929 l -4.41016,0.2793 -3.02148,0.45117 -1.51953,0.33984 -3.06055,0.76953 -1.51953,0.49024 -3.04883,1.07031 -1.49024,0.63867 -2.98046,1.33985 -1.43946,0.77148 -2.86132,1.58984 -1.35938,0.87891 -2.67969,1.83008 -1.25976,0.99023 -2.45117,2.0293 -1.11915,1.08984 -2.13085,2.15039 -1.20899,1.30078 -0.46094,0.53907 -0.82031,1 -0.21875,0.33984 -0.31055,0.56055 0.0801,0.0703 0.66992,-0.0703 0.83985,-0.32031 0.58008,-0.26954 1.25,-0.60937 0.7207,-0.39063 1.50976,-0.83984 0.79883,-0.48047 2.69141,-1.58008 1.48047,-0.80859 0.60937,-0.28125 1.12891,-0.49023 0.45117,-0.11915 0.82031,-0.15039 0.3086,0.041 0.55078,0.18945 0.19922,0.21875 0.33984,0.54102 0.11133,0.40039 0.17969,0.87891 0.0391,0.58007 0.0606,1.25 v 0.77149 l 0.0898,2.27929 0.15039,1.29883 0.10938,0.53125 0.24023,0.98047 0.14062,0.35938 0.29883,0.6289 0.17188,0.18164 0.32812,0.25 0.17188,-0.0215 0.33984,-0.16016 0.16992,-0.23828 0.31836,-0.58984 0.15039,-0.46094 0.27149,-1.05078 0.11914,-0.70899 0.65039,-2.99023 0.58984,-1.78906 0.36914,-0.79102 0.79102,-1.51953 0.49023,-0.66992 1.0293,-1.26953 0.60938,-0.55078 1.28124,-1.05078 0.74024,-0.43946 1.54883,-0.82031 0.88086,-0.33984 1.83007,-0.62891 1.0293,-0.25 2.14063,-0.45117 1.18945,-0.16016 2.0293,-0.23047 1.08008,-0.0781 0.41992,0.01 0.74023,0.0684 0.25,0.0918 0.41992,0.22852 0.0996,0.1914 0.10156,0.42969 -0.0508,0.28906 -0.19922,0.65039 -0.20117,0.41992 -0.46875,0.91016 -0.33984,0.56055 -0.75,1.17968 -0.4707,0.70899 -1.04102,1.86133 -0.6582,1.41992 -0.28125,0.75 -0.53907,1.5 -0.20117,0.70898 -0.33984,1.39063 -0.0801,0.59961 -0.54883,4.32031 4.35938,-4.90039 2.5,-2.69922 1.56054,-1.58008 0.74024,-0.67969 1.45898,-1.29101 0.69922,-0.53906 1.38086,-1.02149 0.66992,-0.41992 2.64063,-1.42969 1.32031,-0.3789 L 171.68945,271 h 1.40039 l 3.55078,0.25977 0.88868,0.17968 0.31054,0.11133 0.51954,0.21875 0.0801,0.12109 -0.0898,0.94922 -0.41016,1.0293 -0.35937,0.68164 -0.82031,1.43945 -0.5293,0.83985 -1.13086,1.74023 -0.65039,0.93946 -2.81836,3.88085 -1.55078,1.89844 -1.56055,1.88086 -0.76953,0.86914 -1.51953,1.67188 -0.73047,0.71875 -2.40039,2.20117 -1.83008,1.51953 -0.94922,0.71875 -1.91015,1.41016 -0.91016,0.61132 -1.75977,1.13868 -0.74023,0.40039 -1.94922,0.98047 -1.02148,0.39062 -2.08008,0.73828 -1.08008,0.29102 -2.19922,0.5 -1.14062,0.16015 -2.31836,0.25977 -1.21094,0.0508 -2.43945,0.0195 -1.27149,-0.0703 -2.56836,-0.21094 -1.33984,-0.19922 -2.69141,-0.44922 -1.40039,-0.31054 -2.82812,-0.68946 -1.46094,-0.42968 -5.34961,-1.3711 -3.12109,-0.55078 -1.49024,-0.0996 -2.94922,-0.0898 -1.55078,0.12109 -3.19922,0.34961 -1.83984,0.32031 -1.08984,0.0195 -0.44922,-0.32032 -0.1211,-0.43945 -0.0996,-0.5 -0.0293,-0.33008 -0.0508,-0.74023 v -0.4707 -1.01954 l 0.01,-0.6289 0.041,-1.3418 0.0195,-0.79883 0.55859,-6.25 0.70117,-4.00976 0.51954,-1.91016 1.13085,-3.75977 0.71876,-1.78124 1.54101,-3.46876 0.91016,-1.62109 1.91992,-3.15039 1.09961,-1.43945 2.28906,-2.79883 1.27148,-1.25 2.62891,-2.40039 1.44141,-1.03125 2.94922,-1.96875 1.58984,-0.81055 2.83008,-1.14062 2.16015,-0.62891 1.18946,-0.24023 2.43945,-0.42969 1.29102,-0.14063 2.61914,-0.25 z m 283.05078,0.0391 2.4707,0.10938 4.54883,0.32031 2.49024,0.30078 1.04101,0.19922 1.97852,0.46094 0.88086,0.30859 1.68945,0.67188 0.83008,0.41992 4.31055,2.81836 2.92968,2.41992 1.3711,1.37109 2.66992,2.83008 1.11914,1.43946 2.06055,2.88085 0.67968,1.34961 1.11915,2.48047 0.73046,1.89844 0.34961,1.05078 1.36133,4.40039 0.56836,2.33008 1.03125,4.66992 0.33008,2.16992 0.29883,2.12891 0.0801,0.9707 0.14062,1.8711 v 0.80859 l -0.0605,2.86133 -0.10937,1.20898 -0.11914,0.33008 -0.30078,0.48047 -0.23047,0.0195 -0.53907,-0.0605 -0.39062,-0.16993 -3.44922,-0.94922 -2.74023,-0.24023 -1.64063,0.0801 -3.43945,0.30078 -2.00977,0.33984 -4.2207,0.83008 -2.42969,0.61914 -4.89062,1.15039 -2.18946,0.39063 -4.2207,0.64844 -1.84961,0.14062 -3.55078,0.15039 -1.5293,-0.11133 -2.89062,-0.35937 -1.19922,-0.36914 -3.32031,-1.23047 -2.23047,-1.04102 -1.11914,-0.61914 -4.46094,-2.7793 -2.18945,-1.75976 -4.33008,-3.78125 -2.06055,-2.20899 -4.04883,-4.66015 -1.87109,-2.61133 -1.88867,-2.72852 -0.99024,-1.52148 -0.35937,-0.62891 -0.62109,-1.17968 -0.16993,-0.47071 -0.24023,-0.85937 0.01,-0.33008 0.13085,-0.61133 0.19922,-0.20898 0.5,-0.38086 0.40039,-0.12891 0.8711,-0.20117 0.58984,-0.0488 1.25977,-0.0703 h 0.76953 l 4.41015,0.69922 3.00977,1.13086 1.49023,0.86914 2.94922,1.9414 1.40039,1.24024 2.74024,2.63867 1.23047,1.56055 1.95898,2.28906 1.06055,1.05078 0.41015,0.30078 0.73047,0.43946 0.24024,0.01 0.39844,-0.13086 0.0703,-0.27929 0.0508,-0.67969 -0.11133,-0.54102 -0.29883,-1.19922 -0.28125,-0.78906 -0.6582,-1.70117 -0.4707,-1.01953 -1.01954,-2.16992 -0.65039,-1.25 -1.33007,-2.64063 -0.74024,-1.58984 -0.2793,-0.64063 -0.49023,-1.18945 -0.13086,-0.38867 -0.16992,-0.64063 0.0606,-0.0605 0.60937,-0.10938 0.80078,-0.01 0.54883,0.0293 1.19141,0.0703 0.69922,0.0605 1.45117,0.13867 0.77929,0.0996 3.06055,0.63086 1.91992,0.65039 0.87891,0.41992 1.70117,0.91016 0.76953,0.54883 1.48047,1.16016 0.63867,0.66015 1.21094,1.37109 0.5,0.75 0.92969,1.5586 0.34961,0.83984 0.60937,1.71094 0.19141,0.91016 0.26953,1.84961 v 0.96093 l 0.25977,1.78907 0.39062,0.74023 h 0.24023 l 0.91016,-0.5 0.47852,-0.81055 0.18164,-0.65039 0.30859,-1.42968 0.0899,-0.93946 0.14062,-2.0293 v -1.2207 l 0.0801,-1.83984 0.14062,-0.9707 0.12891,-0.35938 0.30078,-0.65039 0.21875,-0.18945 0.49024,-0.32032 0.33007,-0.0391 0.72071,0.01 0.45898,0.1289 0.98047,0.33008 0.59961,0.28125 1.27148,0.63867 0.75977,0.44141 1.60937,0.95898 0.93946,0.58985 2.15039,1.30078 1.29101,0.71875 0.53907,0.27148 0.98046,0.46875 0.33008,0.1211 0.54883,0.16015 0.0605,-0.0605 -0.25,-0.60938 -0.56055,-0.78125 -0.43945,-0.5293 -0.99024,-1.15039 -0.61914,-0.66992 -1.31054,-1.40039 -0.73047,-0.74023 -3.46875,-3.16992 -2.49024,-1.94922 -1.32031,-0.88086 -2.66992,-1.71875 -1.40039,-0.75977 -2.83008,-1.4707 -1.44922,-0.63086 -2.92969,-1.18945 -1.49023,-0.49024 -2.99024,-0.91015 -1.5,-0.33008 -3.00976,-0.59961 -1.49024,-0.16992 -2.98046,-0.26954 -1.47071,-0.01 -2.45898,-0.0606 -1.36914,-0.10937 -0.54102,-0.0801 -1,-0.17969 -0.36914,-0.12109 -0.64062,-0.25977 -0.17969,-0.16992 -0.28125,-0.33984 -0.01,-0.19922 0.0898,-0.43164 0.16992,-0.24024 0.4414,-0.50976 0.35938,-0.28907 0.80078,-0.58984 0.5293,-0.33008 4.86914,-2.43945 3.49023,-1.21094 1.91016,-0.39062 3.92969,-0.66992 2.16992,-0.12891 z M 229.49023,369 h 0.47071 l 1.27929,0.0898 0.35938,0.23047 -0.10938,0.2793 -0.16015,0.31055 -0.15039,0.20898 -0.36914,0.46094 -0.25977,0.28906 -0.58008,0.64063 -0.37109,0.39062 -0.79883,0.83984 -0.5,0.50977 -3.16016,3.58008 -1.92968,2.5293 -0.88086,1.32031 -1.69922,2.66992 -0.75,1.38086 -1.44141,2.7793 -0.60937,1.41992 -1.16992,2.84961 -0.47071,1.45117 -0.8789,2.88867 -0.32032,1.45117 -0.57031,2.89063 -0.16992,1.43945 -0.25,2.85938 v 1.40039 l 0.0606,2.14062 0.0996,1.14844 0.0703,0.4414 0.16015,0.7793 0.0996,0.25 0.19922,0.41016 0.1211,0.0605 0.25,0.0293 0.1289,-0.13086 0.27149,-0.36914 0.13867,-0.32031 0.29101,-0.75977 0.13868,-0.52929 0.28125,-1.16016 0.13867,-0.73047 0.79101,-3.25 0.64063,-1.91992 0.34961,-0.75977 0.69922,-1.39062 0.34961,-0.42969 L 219.9707,399 h 0.3086 l 0.64062,0.24023 0.65039,0.36915 0.40039,0.28124 1.75977,1.29883 0.94922,0.83008 1.51953,1.23047 0.86133,0.60938 0.35937,0.1914 0.66016,0.31836 0.25,0.0508 0.43945,0.041 0.14063,-0.0801 0.19922,-0.23047 0.0215,-0.2207 -0.041,-0.49024 -0.11914,-0.33984 -0.30078,-0.74023 -0.25,-0.45899 -0.57031,-0.99023 -0.40039,-0.58008 -1.58008,-3.10938 -0.64844,-2.21093 -0.12109,-1.10938 -0.0898,-2.2207 0.16992,-1.04883 0.48047,-2.04102 0.45898,-0.91015 1.5,-2.26953 1.37109,-1.72071 0.72071,-0.79883 1.42968,-1.53124 0.59961,-0.51954 0.56055,-0.4707 0.22852,-0.13867 L 232.92969,380 h 0.13086 l 0.30859,0.26953 0.2207,0.42969 0.10938,0.31055 0.4414,1.49023 0.16016,0.94922 0.85938,3.41016 0.85937,2.37109 0.48047,1.05859 0.98047,1.98047 0.45898,0.66992 0.44141,0.59961 0.19922,0.18164 0.38086,0.2793 h 0.14844 l 0.35156,-0.58984 0.19922,-0.91993 0.0801,-0.66992 0.15039,-1.48047 0.0391,-0.89062 0.0703,-1.85938 v -1.01953 l 0.31055,-6.08008 0.20898,-1.77929 0.13086,-0.72071 0.26953,-1.29101 0.15039,-0.37891 1.37891,-2.7207 1.1914,-1.65039 0.64844,-0.68945 1.33008,-1.24024 0.65039,-0.40039 L 247.5293,369 h 0.54101 l 0.98047,0.66992 0.59961,1.07031 0.25977,0.7793 0.51953,1.73047 0.21093,1.06055 0.41016,2.21875 0.14844,1.24023 0.48047,5.25 V 385.75 l -0.0391,2.7207 -0.0898,1.29883 -0.24023,2.55078 -0.20117,1.15039 -0.88868,4.24024 -0.75,2.56836 -0.4707,1.18164 -1.00977,2.28906 -0.62109,1.07031 -1.33984,2.09961 -0.79883,1 -1.7207,1.98047 -1.01954,0.96875 -2.16992,1.94141 -1.26953,0.97851 -2.68164,1.98047 -1.54883,1.03125 -3.24023,2.08984 -1.85938,1.10938 -3.9414,2.5 -2.33008,1.61914 -0.96875,0.76172 -1.81055,1.46875 L 220,427 l -1.16992,1.2207 -0.31055,0.49024 -1.18945,1.68945 -0.57031,0.58984 -0.54883,0.53907 -0.24024,0.16015 -0.4414,0.27149 h -0.16016 l -0.88867,-0.42188 -0.81055,-0.67968 -0.48047,-0.51954 -1.01953,-1.11914 -0.56054,-0.70117 -1.16016,-1.46875 -0.59961,-0.82031 -2.44922,-3.50977 -1.14062,-1.87109 -2.16016,-3.73047 -0.76953,-1.6582 -1.79102,-4.83008 -0.77929,-3.28125 -0.18946,-1.65039 -0.24023,-3.3086 0.0703,-1.64062 0.26953,-3.2793 0.33008,-1.60156 0.7793,-3.17969 0.58008,-1.52929 1.28124,-3.01954 0.82032,-1.4414 1.75976,-2.8086 1.0586,-1.30078 2.24023,-2.53906 1.29102,-1.15039 4.66992,-3.50977 3.61914,-2.24023 1.83008,-0.93945 3.62109,-1.75 1.5586,-0.57032 1.50976,-0.5 0.65039,-0.15039 z m 102.09961,0 h 2.55078 l 1.58008,0.23047 1.3086,0.36914 0.75,0.26953 3.25,1.33008 1.79101,0.91992 3.62891,1.96094 1.7207,1.09961 3.30078,2.24023 1.26953,1.08985 1.94922,1.95117 1.33008,1.57812 0.65039,0.90039 2.55078,3.82032 0.99024,2.00976 1.69922,3.7207 0.75976,2.06055 0.23047,1 0.37891,1.98828 0.0801,1.14063 0.11132,2.41015 -0.01,1.51954 -0.15039,3.99023 -0.25977,2.16992 -0.27148,1.03125 -0.61914,2.06836 -0.5,1.16992 -0.51954,1.22071 -0.32031,0.66992 -0.67969,1.41015 -0.39062,0.79102 -1.09961,2.10937 -0.63086,1.09961 -1.32031,2.23047 -0.67969,1.07031 -1.36914,2.08008 -0.64062,0.89844 -1.25977,1.70117 -0.5293,0.59961 -3.85156,4.42969 -2.93945,-4.32031 -1.79883,-2.25 -1.45117,-1.42969 -0.90039,-0.70899 -1.89844,-1.4414 -1.16992,-0.75977 -2.47071,-1.53906 -1.49023,-0.83984 -6.33984,-3.97071 -3.65039,-2.75 -1.56055,-1.43945 -2.91992,-2.91992 -1.18946,-1.55078 -2.2207,-3.16016 -0.84961,-1.67969 -1.53906,-3.43945 -0.51953,-1.84961 -0.88086,-3.78125 -0.21094,-2.03906 -0.25976,-4.16992 0.10156,-2.25 0.33984,-4.6211 0.38867,-2.49023 0.47071,-2.79883 0.31054,-1.58008 0.14844,-0.65039 0.32031,-1.19922 0.16016,-0.48047 0.33008,-0.85937 0.17969,-0.31055 0.37109,-0.55078 0.19922,-0.16992 0.41992,-0.25977 0.24023,-0.0293 1,0.13867 0.64063,0.40039 2.75976,2.31055 1.34961,1.89062 0.48047,1.22852 0.43946,1.29101 0.18945,0.74024 0.33984,1.54883 0.13086,0.88085 0.25,1.84961 0.0899,1.05078 0.17968,2.18946 0.0605,1.24023 0.16992,3.12891 0.0996,1.68164 0.0508,0.6582 0.0996,1.18164 0.0508,0.42969 0.11914,0.75 0.0703,0.23047 0.15039,0.36914 0.0898,0.0508 0.19922,0.0293 0.12109,-0.0899 0.5586,-0.63085 0.41015,-0.60938 0.75977,-1.36914 0.54101,-1.18164 0.26954,-0.67969 1.04101,-2.88867 0.34961,-1.38086 0.98047,-3.65039 0.26953,-0.91016 0.0996,-0.29883 0.16992,-0.5 0.041,-0.0605 0.38867,-0.0195 0.42969,0.21875 0.27148,0.21093 1.26953,1.06055 0.74024,0.76953 1.5,1.62891 0.66992,0.86133 1.25,1.68945 0.36914,0.69922 1.09961,3.28125 0.31055,2.41015 -0.0605,1.19922 -0.23828,2.3711 -0.33008,1.05859 -0.79102,2 -0.58984,0.75 -1.41016,2.13086 -0.33007,0.63867 -0.0996,0.26172 L 335,403.7793 v 0.15039 l 0.25977,0.37109 0.39062,0.0488 0.28906,-0.0488 1.33008,-0.41016 0.79102,-0.41992 1.58984,-0.93164 0.66016,-0.52929 0.61914,-0.53907 0.23047,-0.25976 0.41015,-0.52149 0.0899,-0.24023 0.5,-0.95899 0.36914,-0.41015 0.20117,-0.0801 0.41015,-0.10938 0.20899,0.0586 0.43945,0.1914 0.23047,0.20899 0.45117,0.4707 0.22852,0.33985 0.46094,0.75 0.23046,0.4707 0.91993,2.1582 0.42968,1.46094 0.74024,2.33008 0.49023,1.35937 0.22852,0.55078 0.4414,0.98047 0.17969,0.29883 0.33008,0.48047 h 0.0996 l 0.28906,-0.38086 0.17188,-0.58984 0.0684,-0.42969 0.12109,-0.93945 0.0391,-0.57032 0.0605,-1.18945 -0.01,-0.65039 -0.25976,-4.19922 -0.44141,-2.87109 -0.33984,-1.45899 -0.75977,-2.91015 -0.49023,-1.46094 -1.06836,-2.92969 -0.64063,-1.44922 -1.35937,-2.88086 -0.78125,-1.41992 -1.61914,-2.82031 -0.91016,-1.35938 -1.88086,-2.70117 -1.02929,-1.28906 -2.1211,-2.55078 -1.13867,-1.19922 z"
       style="display:inline;fill:#f3c575;fill-opacity:1" />
  </g>
</svg>
